# MagicaVoxel @ Ephtracy

# group
o boneco

# material
mtllib bonequinho jogo.mtl
usemtl palette

# normals
vn -1 0 0
vn 1 0 0
vn 0 0 1
vn 0 0 -1
vn 0 -1 0
vn 0 1 0

# texcoords
vt 0.0136719 0.5
vt 0.0332031 0.5
vt 0.126953 0.5
vt 0.556641 0.5
vt 0.841797 0.5
vt 0.845703 0.5
vt 0.869141 0.5
vt 0.982422 0.5
vt 0.994141 0.5

# verts
v 0.5 2 -0.8
v 0.5 2 -1.3
v 0.5 2.1 -0.8
v 0.5 2.1 -1.3
v 0.6 2 -0.7
v 0.6 2 -0.8
v 0.6 2 -1.3
v 0.6 2 -1.4
v 0.6 2.1 -0.7
v 0.6 2.1 -0.8
v 0.6 2.1 -0.9
v 0.6 2.1 -1
v 0.6 2.1 -1.3
v 0.6 2.1 -1.4
v 0.6 2.2 -0.8
v 0.6 2.2 -0.9
v 0.6 2.2 -1
v 0.6 2.2 -1.3
v 0.7 2 -0.6
v 0.7 2 -0.7
v 0.7 2 -1.4
v 0.7 2 -1.5
v 0.7 2.1 -0.6
v 0.7 2.1 -0.7
v 0.7 2.1 -0.8
v 0.7 2.1 -1.3
v 0.7 2.1 -1.4
v 0.7 2.1 -1.5
v 0.7 2.2 -0.7
v 0.7 2.2 -0.8
v 0.7 2.2 -0.9
v 0.7 2.2 -1
v 0.7 2.2 -1.3
v 0.7 2.2 -1.4
v 0.7 2.3 -0.8
v 0.7 2.3 -1.3
v 0.8 1.2 -1
v 0.8 1.2 -1.1
v 0.8 1.5 -1
v 0.8 1.5 -1.1
v 0.8 1.6 -1
v 0.8 1.6 -1.1
v 0.8 1.7 -1
v 0.8 1.7 -1.1
v 0.8 1.8 -1
v 0.8 1.8 -1.1
v 0.8 2 -0.5
v 0.8 2 -0.6
v 0.8 2 -1.5
v 0.8 2 -1.6
v 0.8 2.1 -0.5
v 0.8 2.1 -0.6
v 0.8 2.1 -0.7
v 0.8 2.1 -1.4
v 0.8 2.1 -1.5
v 0.8 2.1 -1.6
v 0.8 2.2 -0.6
v 0.8 2.2 -0.7
v 0.8 2.2 -0.8
v 0.8 2.2 -1.3
v 0.8 2.2 -1.4
v 0.8 2.2 -1.5
v 0.8 2.3 -0.7
v 0.8 2.3 -0.8
v 0.8 2.3 -1.3
v 0.8 2.3 -1.4
v 0.8 2.4 -0.8
v 0.8 2.4 -1.3
v 0.9 1.3 -0.9
v 0.9 1.3 -1
v 0.9 1.3 -1.1
v 0.9 1.3 -1.2
v 0.9 1.5 -1
v 0.9 1.5 -1.1
v 0.9 1.6 -0.9
v 0.9 1.6 -1
v 0.9 1.6 -1.1
v 0.9 1.6 -1.2
v 0.9 1.7 -0.8
v 0.9 1.7 -1
v 0.9 1.7 -1.1
v 0.9 1.7 -1.3
v 0.9 1.8 -1
v 0.9 1.8 -1.1
v 0.9 2 -0.8
v 0.9 2 -1.3
v 1 1 -1
v 1 1 -1.1
v 1 1.1 -1
v 1 1.1 -1.1
v 1 1.3 -1
v 1 1.3 -1.1
v 1 1.6 -0.9
v 1 1.6 -1.2
v 1 1.7 -0.9
v 1 1.7 -1.2
v 1 2.4 -0.9
v 1 2.4 -1.2
v 1 2.5 -0.9
v 1 2.5 -1.2
v 1.3 1 -1
v 1.3 1 -1.1
v 1.3 1.1 -1
v 1.3 1.1 -1.1
v 1.3 1.3 -1
v 1.3 1.3 -1.1
v 1.4 1.7 -0.8
v 1.4 1.7 -0.9
v 1.4 1.8 -0.9
v 1.4 1.9 -0.9
v 1.4 2 -0.8
v 1.4 2 -0.9
v 1.5 1.2 -1
v 1.5 1.2 -1.1
v 1.5 1.3 -1
v 1.5 1.3 -1.1
v 0.9 1.2 -1
v 0.9 1.2 -1.1
v 0.9 1.3 -1
v 0.9 1.3 -1.1
v 1 1.7 -0.8
v 1 1.7 -0.9
v 1 1.8 -0.9
v 1 1.9 -0.9
v 1 2 -0.8
v 1 2 -0.9
v 1.1 1 -1
v 1.1 1 -1.1
v 1.1 1.1 -1
v 1.1 1.1 -1.1
v 1.1 1.3 -1
v 1.1 1.3 -1.1
v 1.4 1 -1
v 1.4 1 -1.1
v 1.4 1.1 -1
v 1.4 1.1 -1.1
v 1.4 1.3 -1
v 1.4 1.3 -1.1
v 1.4 1.6 -0.9
v 1.4 1.6 -1.2
v 1.4 1.7 -0.9
v 1.4 1.7 -1.2
v 1.4 2.4 -0.9
v 1.4 2.4 -1.2
v 1.4 2.5 -0.9
v 1.4 2.5 -1.2
v 1.5 1.3 -0.9
v 1.5 1.3 -1
v 1.5 1.3 -1.1
v 1.5 1.3 -1.2
v 1.5 1.5 -1
v 1.5 1.5 -1.1
v 1.5 1.6 -0.9
v 1.5 1.6 -1
v 1.5 1.6 -1.1
v 1.5 1.6 -1.2
v 1.5 1.7 -0.8
v 1.5 1.7 -1
v 1.5 1.7 -1.1
v 1.5 1.7 -1.3
v 1.5 1.8 -1
v 1.5 1.8 -1.1
v 1.5 2 -0.8
v 1.5 2 -1.3
v 1.6 1.2 -1
v 1.6 1.2 -1.1
v 1.6 1.5 -1
v 1.6 1.5 -1.1
v 1.6 1.6 -1
v 1.6 1.6 -1.1
v 1.6 1.7 -1
v 1.6 1.7 -1.1
v 1.6 1.8 -1
v 1.6 1.8 -1.1
v 1.6 2 -0.5
v 1.6 2 -0.6
v 1.6 2 -1.5
v 1.6 2 -1.6
v 1.6 2.1 -0.5
v 1.6 2.1 -0.6
v 1.6 2.1 -0.7
v 1.6 2.1 -1.4
v 1.6 2.1 -1.5
v 1.6 2.1 -1.6
v 1.6 2.2 -0.6
v 1.6 2.2 -0.7
v 1.6 2.2 -0.8
v 1.6 2.2 -1.3
v 1.6 2.2 -1.4
v 1.6 2.2 -1.5
v 1.6 2.3 -0.7
v 1.6 2.3 -0.8
v 1.6 2.3 -1.3
v 1.6 2.3 -1.4
v 1.6 2.4 -0.8
v 1.6 2.4 -1.3
v 1.7 2 -0.6
v 1.7 2 -0.7
v 1.7 2 -1.4
v 1.7 2 -1.5
v 1.7 2.1 -0.6
v 1.7 2.1 -0.7
v 1.7 2.1 -0.8
v 1.7 2.1 -1.3
v 1.7 2.1 -1.4
v 1.7 2.1 -1.5
v 1.7 2.2 -0.7
v 1.7 2.2 -0.8
v 1.7 2.2 -0.9
v 1.7 2.2 -1
v 1.7 2.2 -1.3
v 1.7 2.2 -1.4
v 1.7 2.3 -0.8
v 1.7 2.3 -1.3
v 1.8 2 -0.7
v 1.8 2 -0.8
v 1.8 2 -1.3
v 1.8 2 -1.4
v 1.8 2.1 -0.7
v 1.8 2.1 -0.8
v 1.8 2.1 -0.9
v 1.8 2.1 -1
v 1.8 2.1 -1.3
v 1.8 2.1 -1.4
v 1.8 2.2 -0.8
v 1.8 2.2 -0.9
v 1.8 2.2 -1
v 1.8 2.2 -1.3
v 1.9 2 -0.8
v 1.9 2 -1.3
v 1.9 2.1 -0.8
v 1.9 2.1 -1.3
v 0.8 2 -0.5
v 0.8 2.1 -0.5
v 1.6 2 -0.5
v 1.6 2.1 -0.5
v 0.7 2 -0.6
v 0.7 2.1 -0.6
v 0.8 2 -0.6
v 0.8 2.1 -0.6
v 0.8 2.2 -0.6
v 1.6 2 -0.6
v 1.6 2.1 -0.6
v 1.6 2.2 -0.6
v 1.7 2 -0.6
v 1.7 2.1 -0.6
v 0.6 2 -0.7
v 0.6 2.1 -0.7
v 0.7 2 -0.7
v 0.7 2.1 -0.7
v 0.7 2.2 -0.7
v 0.8 2.1 -0.7
v 0.8 2.2 -0.7
v 0.8 2.3 -0.7
v 1.6 2.1 -0.7
v 1.6 2.2 -0.7
v 1.6 2.3 -0.7
v 1.7 2 -0.7
v 1.7 2.1 -0.7
v 1.7 2.2 -0.7
v 1.8 2 -0.7
v 1.8 2.1 -0.7
v 0.5 2 -0.8
v 0.5 2.1 -0.8
v 0.6 2 -0.8
v 0.6 2.1 -0.8
v 0.6 2.2 -0.8
v 0.7 2.1 -0.8
v 0.7 2.2 -0.8
v 0.7 2.3 -0.8
v 0.8 2.2 -0.8
v 0.8 2.3 -0.8
v 0.8 2.4 -0.8
v 0.9 1.7 -0.8
v 0.9 2 -0.8
v 1 1.7 -0.8
v 1 2 -0.8
v 1.4 1.7 -0.8
v 1.4 2 -0.8
v 1.5 1.7 -0.8
v 1.5 2 -0.8
v 1.6 2.2 -0.8
v 1.6 2.3 -0.8
v 1.6 2.4 -0.8
v 1.7 2.1 -0.8
v 1.7 2.2 -0.8
v 1.7 2.3 -0.8
v 1.8 2 -0.8
v 1.8 2.1 -0.8
v 1.8 2.2 -0.8
v 1.9 2 -0.8
v 1.9 2.1 -0.8
v 0.9 1.3 -0.9
v 0.9 1.6 -0.9
v 1 1.6 -0.9
v 1 1.7 -0.9
v 1 1.8 -0.9
v 1 1.9 -0.9
v 1 2 -0.9
v 1 2.4 -0.9
v 1 2.5 -0.9
v 1.1 1.7 -0.9
v 1.1 1.8 -0.9
v 1.1 1.9 -0.9
v 1.2 1.7 -0.9
v 1.2 1.8 -0.9
v 1.3 1.8 -0.9
v 1.3 1.9 -0.9
v 1.4 1.6 -0.9
v 1.4 1.7 -0.9
v 1.4 1.8 -0.9
v 1.4 1.9 -0.9
v 1.4 2 -0.9
v 1.4 2.4 -0.9
v 1.4 2.5 -0.9
v 1.5 1.3 -0.9
v 1.5 1.6 -0.9
v 0.8 1.2 -1
v 0.8 1.5 -1
v 0.8 1.6 -1
v 0.8 1.7 -1
v 0.8 1.8 -1
v 0.9 1.2 -1
v 0.9 1.3 -1
v 0.9 1.5 -1
v 0.9 1.6 -1
v 0.9 1.7 -1
v 0.9 1.8 -1
v 1 1 -1
v 1 1.1 -1
v 1 1.3 -1
v 1.1 1 -1
v 1.1 1.1 -1
v 1.1 1.3 -1
v 1.3 1 -1
v 1.3 1.1 -1
v 1.3 1.3 -1
v 1.4 1 -1
v 1.4 1.1 -1
v 1.4 1.3 -1
v 1.5 1.2 -1
v 1.5 1.3 -1
v 1.5 1.5 -1
v 1.5 1.6 -1
v 1.5 1.7 -1
v 1.5 1.8 -1
v 1.6 1.2 -1
v 1.6 1.5 -1
v 1.6 1.6 -1
v 1.6 1.7 -1
v 1.6 1.8 -1
v 0.8 1.2 -1.1
v 0.8 1.5 -1.1
v 0.8 1.6 -1.1
v 0.8 1.7 -1.1
v 0.8 1.8 -1.1
v 0.9 1.2 -1.1
v 0.9 1.3 -1.1
v 0.9 1.5 -1.1
v 0.9 1.6 -1.1
v 0.9 1.7 -1.1
v 0.9 1.8 -1.1
v 1 1 -1.1
v 1 1.1 -1.1
v 1 1.3 -1.1
v 1.1 1 -1.1
v 1.1 1.1 -1.1
v 1.1 1.3 -1.1
v 1.3 1 -1.1
v 1.3 1.1 -1.1
v 1.3 1.3 -1.1
v 1.4 1 -1.1
v 1.4 1.1 -1.1
v 1.4 1.3 -1.1
v 1.5 1.2 -1.1
v 1.5 1.3 -1.1
v 1.5 1.5 -1.1
v 1.5 1.6 -1.1
v 1.5 1.7 -1.1
v 1.5 1.8 -1.1
v 1.6 1.2 -1.1
v 1.6 1.5 -1.1
v 1.6 1.6 -1.1
v 1.6 1.7 -1.1
v 1.6 1.8 -1.1
v 0.9 1.3 -1.2
v 0.9 1.6 -1.2
v 1 1.6 -1.2
v 1 1.7 -1.2
v 1 2.4 -1.2
v 1 2.5 -1.2
v 1.4 1.6 -1.2
v 1.4 1.7 -1.2
v 1.4 2.4 -1.2
v 1.4 2.5 -1.2
v 1.5 1.3 -1.2
v 1.5 1.6 -1.2
v 0.5 2 -1.3
v 0.5 2.1 -1.3
v 0.6 2 -1.3
v 0.6 2.1 -1.3
v 0.6 2.2 -1.3
v 0.7 2.1 -1.3
v 0.7 2.2 -1.3
v 0.7 2.3 -1.3
v 0.8 2.2 -1.3
v 0.8 2.3 -1.3
v 0.8 2.4 -1.3
v 0.9 1.7 -1.3
v 0.9 2 -1.3
v 1.5 1.7 -1.3
v 1.5 2 -1.3
v 1.6 2.2 -1.3
v 1.6 2.3 -1.3
v 1.6 2.4 -1.3
v 1.7 2.1 -1.3
v 1.7 2.2 -1.3
v 1.7 2.3 -1.3
v 1.8 2 -1.3
v 1.8 2.1 -1.3
v 1.8 2.2 -1.3
v 1.9 2 -1.3
v 1.9 2.1 -1.3
v 0.6 2 -1.4
v 0.6 2.1 -1.4
v 0.7 2 -1.4
v 0.7 2.1 -1.4
v 0.7 2.2 -1.4
v 0.8 2.1 -1.4
v 0.8 2.2 -1.4
v 0.8 2.3 -1.4
v 1.6 2.1 -1.4
v 1.6 2.2 -1.4
v 1.6 2.3 -1.4
v 1.7 2 -1.4
v 1.7 2.1 -1.4
v 1.7 2.2 -1.4
v 1.8 2 -1.4
v 1.8 2.1 -1.4
v 0.7 2 -1.5
v 0.7 2.1 -1.5
v 0.8 2 -1.5
v 0.8 2.1 -1.5
v 0.8 2.2 -1.5
v 1.6 2 -1.5
v 1.6 2.1 -1.5
v 1.6 2.2 -1.5
v 1.7 2 -1.5
v 1.7 2.1 -1.5
v 0.8 2 -1.6
v 0.8 2.1 -1.6
v 1.6 2 -1.6
v 1.6 2.1 -1.6
v 1 1 -1
v 1.1 1 -1
v 1.3 1 -1
v 1.4 1 -1
v 1 1 -1.1
v 1.1 1 -1.1
v 1.3 1 -1.1
v 1.4 1 -1.1
v 0.8 1.2 -1
v 0.9 1.2 -1
v 1.5 1.2 -1
v 1.6 1.2 -1
v 0.8 1.2 -1.1
v 0.9 1.2 -1.1
v 1.5 1.2 -1.1
v 1.6 1.2 -1.1
v 0.9 1.3 -0.9
v 1.5 1.3 -0.9
v 0.9 1.3 -1
v 1 1.3 -1
v 1.1 1.3 -1
v 1.3 1.3 -1
v 1.4 1.3 -1
v 1.5 1.3 -1
v 0.9 1.3 -1.1
v 1 1.3 -1.1
v 1.1 1.3 -1.1
v 1.3 1.3 -1.1
v 1.4 1.3 -1.1
v 1.5 1.3 -1.1
v 0.9 1.3 -1.2
v 1.5 1.3 -1.2
v 0.9 1.7 -0.8
v 1 1.7 -0.8
v 1.4 1.7 -0.8
v 1.5 1.7 -0.8
v 1 1.7 -0.9
v 1.4 1.7 -0.9
v 0.8 1.7 -1
v 0.9 1.7 -1
v 1.5 1.7 -1
v 1.6 1.7 -1
v 0.8 1.7 -1.1
v 0.9 1.7 -1.1
v 1.5 1.7 -1.1
v 1.6 1.7 -1.1
v 1 1.7 -1.2
v 1.4 1.7 -1.2
v 0.9 1.7 -1.3
v 1.5 1.7 -1.3
v 0.8 2 -0.5
v 1.6 2 -0.5
v 0.7 2 -0.6
v 0.8 2 -0.6
v 1.6 2 -0.6
v 1.7 2 -0.6
v 0.6 2 -0.7
v 0.7 2 -0.7
v 1.7 2 -0.7
v 1.8 2 -0.7
v 0.5 2 -0.8
v 0.6 2 -0.8
v 0.9 2 -0.8
v 1 2 -0.8
v 1.4 2 -0.8
v 1.5 2 -0.8
v 1.8 2 -0.8
v 1.9 2 -0.8
v 1 2 -0.9
v 1.4 2 -0.9
v 0.5 2 -1.3
v 0.6 2 -1.3
v 0.9 2 -1.3
v 1.5 2 -1.3
v 1.8 2 -1.3
v 1.9 2 -1.3
v 0.6 2 -1.4
v 0.7 2 -1.4
v 1.7 2 -1.4
v 1.8 2 -1.4
v 0.7 2 -1.5
v 0.8 2 -1.5
v 1.6 2 -1.5
v 1.7 2 -1.5
v 0.8 2 -1.6
v 1.6 2 -1.6
v 0.9 1.6 -0.9
v 1 1.6 -0.9
v 1.4 1.6 -0.9
v 1.5 1.6 -0.9
v 0.8 1.6 -1
v 0.9 1.6 -1
v 1.5 1.6 -1
v 1.6 1.6 -1
v 0.8 1.6 -1.1
v 0.9 1.6 -1.1
v 1.5 1.6 -1.1
v 1.6 1.6 -1.1
v 0.9 1.6 -1.2
v 1 1.6 -1.2
v 1.4 1.6 -1.2
v 1.5 1.6 -1.2
v 0.8 1.8 -1
v 0.9 1.8 -1
v 1.5 1.8 -1
v 1.6 1.8 -1
v 0.8 1.8 -1.1
v 0.9 1.8 -1.1
v 1.5 1.8 -1.1
v 1.6 1.8 -1.1
v 0.8 2.1 -0.5
v 1.6 2.1 -0.5
v 0.7 2.1 -0.6
v 0.8 2.1 -0.6
v 1.6 2.1 -0.6
v 1.7 2.1 -0.6
v 0.6 2.1 -0.7
v 0.7 2.1 -0.7
v 0.8 2.1 -0.7
v 1.6 2.1 -0.7
v 1.7 2.1 -0.7
v 1.8 2.1 -0.7
v 0.5 2.1 -0.8
v 0.6 2.1 -0.8
v 0.7 2.1 -0.8
v 1.7 2.1 -0.8
v 1.8 2.1 -0.8
v 1.9 2.1 -0.8
v 0.6 2.1 -0.9
v 1.8 2.1 -0.9
v 0.6 2.1 -1
v 1.8 2.1 -1
v 0.5 2.1 -1.3
v 0.6 2.1 -1.3
v 0.7 2.1 -1.3
v 1.7 2.1 -1.3
v 1.8 2.1 -1.3
v 1.9 2.1 -1.3
v 0.6 2.1 -1.4
v 0.7 2.1 -1.4
v 0.8 2.1 -1.4
v 1.6 2.1 -1.4
v 1.7 2.1 -1.4
v 1.8 2.1 -1.4
v 0.7 2.1 -1.5
v 0.8 2.1 -1.5
v 1.6 2.1 -1.5
v 1.7 2.1 -1.5
v 0.8 2.1 -1.6
v 1.6 2.1 -1.6
v 0.8 2.2 -0.6
v 1.6 2.2 -0.6
v 0.7 2.2 -0.7
v 0.8 2.2 -0.7
v 1.6 2.2 -0.7
v 1.7 2.2 -0.7
v 0.6 2.2 -0.8
v 0.7 2.2 -0.8
v 0.8 2.2 -0.8
v 1.6 2.2 -0.8
v 1.7 2.2 -0.8
v 1.8 2.2 -0.8
v 0.6 2.2 -0.9
v 0.7 2.2 -0.9
v 1.7 2.2 -0.9
v 1.8 2.2 -0.9
v 0.6 2.2 -1
v 0.7 2.2 -1
v 1.7 2.2 -1
v 1.8 2.2 -1
v 0.6 2.2 -1.3
v 0.7 2.2 -1.3
v 0.8 2.2 -1.3
v 1.6 2.2 -1.3
v 1.7 2.2 -1.3
v 1.8 2.2 -1.3
v 0.7 2.2 -1.4
v 0.8 2.2 -1.4
v 1.6 2.2 -1.4
v 1.7 2.2 -1.4
v 0.8 2.2 -1.5
v 1.6 2.2 -1.5
v 0.8 2.3 -0.7
v 1.6 2.3 -0.7
v 0.7 2.3 -0.8
v 0.8 2.3 -0.8
v 1.6 2.3 -0.8
v 1.7 2.3 -0.8
v 0.7 2.3 -1.3
v 0.8 2.3 -1.3
v 1.6 2.3 -1.3
v 1.7 2.3 -1.3
v 0.8 2.3 -1.4
v 1.6 2.3 -1.4
v 0.8 2.4 -0.8
v 1.6 2.4 -0.8
v 1 2.4 -0.9
v 1.4 2.4 -0.9
v 1 2.4 -1.2
v 1.4 2.4 -1.2
v 0.8 2.4 -1.3
v 1.6 2.4 -1.3
v 1 2.5 -0.9
v 1.4 2.5 -0.9
v 1 2.5 -1.2
v 1.4 2.5 -1.2

# faces
f 3/1/1 2/1/1 1/1/1
f 4/1/1 2/1/1 3/1/1
f 9/1/1 6/1/1 5/1/1
f 10/1/1 6/1/1 9/1/1
f 13/1/1 8/1/1 7/1/1
f 14/1/1 8/1/1 13/1/1
f 15/5/1 11/5/1 10/5/1
f 16/6/1 12/6/1 11/6/1
f 16/5/1 11/5/1 15/5/1
f 17/5/1 13/5/1 12/5/1
f 17/6/1 12/6/1 16/6/1
f 18/5/1 13/5/1 17/5/1
f 23/1/1 20/1/1 19/1/1
f 24/1/1 20/1/1 23/1/1
f 27/1/1 22/1/1 21/1/1
f 28/1/1 22/1/1 27/1/1
f 29/5/1 25/5/1 24/5/1
f 30/5/1 25/5/1 29/5/1
f 33/5/1 27/5/1 26/5/1
f 34/5/1 27/5/1 33/5/1
f 35/1/1 32/1/1 31/1/1
f 35/1/1 33/1/1 32/1/1
f 35/1/1 31/1/1 30/1/1
f 36/1/1 33/1/1 35/1/1
f 39/2/1 38/2/1 37/2/1
f 40/2/1 38/2/1 39/2/1
f 41/4/1 40/4/1 39/4/1
f 42/4/1 40/4/1 41/4/1
f 45/2/1 44/2/1 43/2/1
f 46/2/1 44/2/1 45/2/1
f 51/1/1 48/1/1 47/1/1
f 52/1/1 48/1/1 51/1/1
f 55/1/1 50/1/1 49/1/1
f 56/1/1 50/1/1 55/1/1
f 57/5/1 53/5/1 52/5/1
f 58/5/1 53/5/1 57/5/1
f 61/5/1 55/5/1 54/5/1
f 62/5/1 55/5/1 61/5/1
f 63/1/1 59/1/1 58/1/1
f 64/1/1 59/1/1 63/1/1
f 65/1/1 61/1/1 60/1/1
f 66/1/1 61/1/1 65/1/1
f 67/1/1 65/1/1 64/1/1
f 68/1/1 65/1/1 67/1/1
f 73/4/1 70/4/1 69/4/1
f 74/4/1 72/4/1 71/4/1
f 75/4/1 73/4/1 69/4/1
f 76/4/1 73/4/1 75/4/1
f 77/4/1 72/4/1 74/4/1
f 78/4/1 72/4/1 77/4/1
f 83/7/1 80/7/1 79/7/1
f 84/7/1 82/7/1 81/7/1
f 85/7/1 83/7/1 79/7/1
f 85/7/1 84/7/1 83/7/1
f 86/7/1 82/7/1 84/7/1
f 86/7/1 84/7/1 85/7/1
f 89/2/1 88/2/1 87/2/1
f 90/2/1 88/2/1 89/2/1
f 91/8/1 90/8/1 89/8/1
f 92/8/1 90/8/1 91/8/1
f 95/4/1 94/4/1 93/4/1
f 96/4/1 94/4/1 95/4/1
f 99/1/1 98/1/1 97/1/1
f 100/1/1 98/1/1 99/1/1
f 103/2/1 102/2/1 101/2/1
f 104/2/1 102/2/1 103/2/1
f 105/8/1 104/8/1 103/8/1
f 106/8/1 104/8/1 105/8/1
f 109/7/1 108/7/1 107/7/1
f 110/7/1 109/7/1 107/7/1
f 111/7/1 110/7/1 107/7/1
f 112/7/1 110/7/1 111/7/1
f 115/2/1 114/2/1 113/2/1
f 116/2/1 114/2/1 115/2/1
f 117/2/2 118/2/2 119/2/2
f 119/2/2 118/2/2 120/2/2
f 121/7/2 122/7/2 123/7/2
f 121/7/2 123/7/2 124/7/2
f 121/7/2 124/7/2 125/7/2
f 125/7/2 124/7/2 126/7/2
f 127/2/2 128/2/2 129/2/2
f 129/2/2 128/2/2 130/2/2
f 129/8/2 130/8/2 131/8/2
f 131/8/2 130/8/2 132/8/2
f 133/2/2 134/2/2 135/2/2
f 135/2/2 134/2/2 136/2/2
f 135/8/2 136/8/2 137/8/2
f 137/8/2 136/8/2 138/8/2
f 139/4/2 140/4/2 141/4/2
f 141/4/2 140/4/2 142/4/2
f 143/1/2 144/1/2 145/1/2
f 145/1/2 144/1/2 146/1/2
f 147/4/2 148/4/2 151/4/2
f 149/4/2 150/4/2 152/4/2
f 147/4/2 151/4/2 153/4/2
f 153/4/2 151/4/2 154/4/2
f 152/4/2 150/4/2 155/4/2
f 155/4/2 150/4/2 156/4/2
f 157/7/2 158/7/2 161/7/2
f 159/7/2 160/7/2 162/7/2
f 157/7/2 161/7/2 163/7/2
f 161/7/2 162/7/2 163/7/2
f 162/7/2 160/7/2 164/7/2
f 163/7/2 162/7/2 164/7/2
f 165/2/2 166/2/2 167/2/2
f 167/2/2 166/2/2 168/2/2
f 167/4/2 168/4/2 169/4/2
f 169/4/2 168/4/2 170/4/2
f 171/2/2 172/2/2 173/2/2
f 173/2/2 172/2/2 174/2/2
f 175/1/2 176/1/2 179/1/2
f 179/1/2 176/1/2 180/1/2
f 177/1/2 178/1/2 183/1/2
f 183/1/2 178/1/2 184/1/2
f 180/5/2 181/5/2 185/5/2
f 185/5/2 181/5/2 186/5/2
f 182/5/2 183/5/2 189/5/2
f 189/5/2 183/5/2 190/5/2
f 186/1/2 187/1/2 191/1/2
f 191/1/2 187/1/2 192/1/2
f 188/1/2 189/1/2 193/1/2
f 193/1/2 189/1/2 194/1/2
f 192/1/2 193/1/2 195/1/2
f 195/1/2 193/1/2 196/1/2
f 197/1/2 198/1/2 201/1/2
f 201/1/2 198/1/2 202/1/2
f 199/1/2 200/1/2 205/1/2
f 205/1/2 200/1/2 206/1/2
f 202/5/2 203/5/2 207/5/2
f 207/5/2 203/5/2 208/5/2
f 204/5/2 205/5/2 211/5/2
f 211/5/2 205/5/2 212/5/2
f 209/1/2 210/1/2 213/1/2
f 210/1/2 211/1/2 213/1/2
f 208/1/2 209/1/2 213/1/2
f 213/1/2 211/1/2 214/1/2
f 215/1/2 216/1/2 219/1/2
f 219/1/2 216/1/2 220/1/2
f 217/1/2 218/1/2 223/1/2
f 223/1/2 218/1/2 224/1/2
f 220/5/2 221/5/2 225/5/2
f 221/6/2 222/6/2 226/6/2
f 225/5/2 221/5/2 226/5/2
f 222/5/2 223/5/2 227/5/2
f 226/6/2 222/6/2 227/6/2
f 227/5/2 223/5/2 228/5/2
f 229/1/2 230/1/2 231/1/2
f 231/1/2 230/1/2 232/1/2
f 235/1/3 234/1/3 233/1/3
f 236/1/3 234/1/3 235/1/3
f 239/1/3 238/1/3 237/1/3
f 240/1/3 238/1/3 239/1/3
f 243/5/3 241/5/3 240/5/3
f 244/5/3 241/5/3 243/5/3
f 245/1/3 243/1/3 242/1/3
f 246/1/3 243/1/3 245/1/3
f 249/1/3 248/1/3 247/1/3
f 250/1/3 248/1/3 249/1/3
f 252/5/3 251/5/3 250/5/3
f 253/5/3 251/5/3 252/5/3
f 256/1/3 254/1/3 253/1/3
f 257/1/3 254/1/3 256/1/3
f 259/5/3 256/5/3 255/5/3
f 260/5/3 256/5/3 259/5/3
f 261/1/3 259/1/3 258/1/3
f 262/1/3 259/1/3 261/1/3
f 265/1/3 264/1/3 263/1/3
f 266/1/3 264/1/3 265/1/3
f 268/5/3 267/5/3 266/5/3
f 269/5/3 267/5/3 268/5/3
f 271/1/3 270/1/3 269/1/3
f 272/1/3 270/1/3 271/1/3
f 276/7/3 275/7/3 274/7/3
f 277/7/3 275/7/3 276/7/3
f 280/7/3 279/7/3 278/7/3
f 281/7/3 279/7/3 280/7/3
f 283/1/3 273/1/3 272/1/3
f 284/1/3 273/1/3 283/1/3
f 286/1/3 283/1/3 282/1/3
f 287/1/3 283/1/3 286/1/3
f 289/5/3 286/5/3 285/5/3
f 290/5/3 286/5/3 289/5/3
f 291/1/3 289/1/3 288/1/3
f 292/1/3 289/1/3 291/1/3
f 295/4/3 294/4/3 293/4/3
f 302/4/3 296/4/3 295/4/3
f 302/2/3 297/2/3 296/2/3
f 303/9/3 298/9/3 297/9/3
f 303/2/3 297/2/3 302/2/3
f 304/2/3 299/2/3 298/2/3
f 304/9/3 298/9/3 303/9/3
f 305/3/3 303/3/3 302/3/3
f 305/4/3 302/4/3 295/4/3
f 306/2/3 304/2/3 303/2/3
f 306/3/3 303/3/3 305/3/3
f 307/2/3 306/2/3 305/2/3
f 307/2/3 304/2/3 306/2/3
f 308/2/3 299/2/3 304/2/3
f 308/2/3 304/2/3 307/2/3
f 309/4/3 295/4/3 293/4/3
f 309/4/3 305/4/3 295/4/3
f 310/2/3 307/2/3 305/2/3
f 310/4/3 305/4/3 309/4/3
f 311/9/3 308/9/3 307/9/3
f 311/2/3 307/2/3 310/2/3
f 312/2/3 299/2/3 308/2/3
f 312/9/3 308/9/3 311/9/3
f 313/2/3 299/2/3 312/2/3
f 314/1/3 301/1/3 300/1/3
f 315/1/3 301/1/3 314/1/3
f 316/4/3 309/4/3 293/4/3
f 317/4/3 309/4/3 316/4/3
f 323/2/3 319/2/3 318/2/3
f 324/2/3 319/2/3 323/2/3
f 325/4/3 320/4/3 319/4/3
f 325/2/3 319/2/3 324/2/3
f 326/4/3 320/4/3 325/4/3
f 327/2/3 322/2/3 321/2/3
f 328/2/3 322/2/3 327/2/3
f 332/2/3 330/2/3 329/2/3
f 333/8/3 331/8/3 330/8/3
f 333/2/3 330/2/3 332/2/3
f 334/8/3 331/8/3 333/8/3
f 338/2/3 336/2/3 335/2/3
f 339/8/3 337/8/3 336/8/3
f 339/2/3 336/2/3 338/2/3
f 340/8/3 337/8/3 339/8/3
f 347/2/3 342/2/3 341/2/3
f 347/2/3 343/2/3 342/2/3
f 348/4/3 344/4/3 343/4/3
f 348/2/3 343/2/3 347/2/3
f 349/4/3 344/4/3 348/4/3
f 350/2/3 346/2/3 345/2/3
f 351/2/3 346/2/3 350/2/3
f 352/2/4 353/2/4 357/2/4
f 357/2/4 353/2/4 358/2/4
f 353/4/4 354/4/4 359/4/4
f 358/2/4 353/2/4 359/2/4
f 359/4/4 354/4/4 360/4/4
f 355/2/4 356/2/4 361/2/4
f 361/2/4 356/2/4 362/2/4
f 363/2/4 364/2/4 366/2/4
f 364/8/4 365/8/4 367/8/4
f 366/2/4 364/2/4 367/2/4
f 367/8/4 365/8/4 368/8/4
f 369/2/4 370/2/4 372/2/4
f 370/8/4 371/8/4 373/8/4
f 372/2/4 370/2/4 373/2/4
f 373/8/4 371/8/4 374/8/4
f 375/2/4 376/2/4 381/2/4
f 376/2/4 377/2/4 381/2/4
f 377/4/4 378/4/4 382/4/4
f 381/2/4 377/2/4 382/2/4
f 382/4/4 378/4/4 383/4/4
f 379/2/4 380/2/4 384/2/4
f 384/2/4 380/2/4 385/2/4
f 386/4/4 387/4/4 388/4/4
f 386/4/4 388/4/4 392/4/4
f 388/4/4 389/4/4 392/4/4
f 392/4/4 389/4/4 393/4/4
f 390/1/4 391/1/4 394/1/4
f 394/1/4 391/1/4 395/1/4
f 386/4/4 392/4/4 396/4/4
f 396/4/4 392/4/4 397/4/4
f 398/1/4 399/1/4 400/1/4
f 400/1/4 399/1/4 401/1/4
f 401/5/4 402/5/4 403/5/4
f 403/5/4 402/5/4 404/5/4
f 404/1/4 405/1/4 406/1/4
f 406/1/4 405/1/4 407/1/4
f 409/7/4 410/7/4 411/7/4
f 411/7/4 410/7/4 412/7/4
f 407/1/4 408/1/4 414/1/4
f 414/1/4 408/1/4 415/1/4
f 413/1/4 414/1/4 417/1/4
f 417/1/4 414/1/4 418/1/4
f 416/5/4 417/5/4 420/5/4
f 420/5/4 417/5/4 421/5/4
f 419/1/4 420/1/4 422/1/4
f 422/1/4 420/1/4 423/1/4
f 424/1/4 425/1/4 426/1/4
f 426/1/4 425/1/4 427/1/4
f 427/5/4 428/5/4 429/5/4
f 429/5/4 428/5/4 430/5/4
f 430/1/4 431/1/4 433/1/4
f 433/1/4 431/1/4 434/1/4
f 432/5/4 433/5/4 436/5/4
f 436/5/4 433/5/4 437/5/4
f 435/1/4 436/1/4 438/1/4
f 438/1/4 436/1/4 439/1/4
f 440/1/4 441/1/4 442/1/4
f 442/1/4 441/1/4 443/1/4
f 443/5/4 444/5/4 446/5/4
f 446/5/4 444/5/4 447/5/4
f 445/1/4 446/1/4 448/1/4
f 448/1/4 446/1/4 449/1/4
f 450/1/4 451/1/4 452/1/4
f 452/1/4 451/1/4 453/1/4
f 458/2/5 455/2/5 454/2/5
f 459/2/5 455/2/5 458/2/5
f 460/2/5 457/2/5 456/2/5
f 461/2/5 457/2/5 460/2/5
f 466/2/5 463/2/5 462/2/5
f 467/2/5 463/2/5 466/2/5
f 468/2/5 465/2/5 464/2/5
f 469/2/5 465/2/5 468/2/5
f 472/4/5 471/4/5 470/4/5
f 473/4/5 471/4/5 472/4/5
f 474/4/5 471/4/5 473/4/5
f 475/4/5 471/4/5 474/4/5
f 476/4/5 471/4/5 475/4/5
f 477/4/5 471/4/5 476/4/5
f 478/4/5 473/4/5 472/4/5
f 479/4/5 473/4/5 478/4/5
f 480/4/5 475/4/5 474/4/5
f 481/4/5 475/4/5 480/4/5
f 482/4/5 477/4/5 476/4/5
f 483/4/5 477/4/5 482/4/5
f 484/4/5 481/4/5 480/4/5
f 484/4/5 479/4/5 478/4/5
f 484/4/5 483/4/5 482/4/5
f 484/4/5 482/4/5 481/4/5
f 484/4/5 480/4/5 479/4/5
f 485/4/5 483/4/5 484/4/5
f 490/7/5 487/7/5 486/7/5
f 491/7/5 489/7/5 488/7/5
f 493/7/5 490/7/5 486/7/5
f 494/7/5 489/7/5 491/7/5
f 496/2/5 493/2/5 492/2/5
f 497/7/5 490/7/5 493/7/5
f 497/2/5 493/2/5 496/2/5
f 498/2/5 495/2/5 494/2/5
f 498/7/5 494/7/5 491/7/5
f 499/2/5 495/2/5 498/2/5
f 500/7/5 490/7/5 497/7/5
f 501/7/5 498/7/5 491/7/5
f 502/7/5 500/7/5 497/7/5
f 502/7/5 501/7/5 500/7/5
f 503/7/5 498/7/5 501/7/5
f 503/7/5 501/7/5 502/7/5
f 507/1/5 505/1/5 504/1/5
f 508/1/5 505/1/5 507/1/5
f 511/1/5 507/1/5 506/1/5
f 511/1/5 509/1/5 508/1/5
f 511/1/5 508/1/5 507/1/5
f 512/1/5 509/1/5 511/1/5
f 515/1/5 511/1/5 510/1/5
f 515/1/5 513/1/5 512/1/5
f 515/1/5 512/1/5 511/1/5
f 516/1/5 513/1/5 515/1/5
f 517/1/5 513/1/5 516/1/5
f 518/1/5 513/1/5 517/1/5
f 519/1/5 513/1/5 518/1/5
f 520/1/5 513/1/5 519/1/5
f 522/7/5 518/7/5 517/7/5
f 523/7/5 518/7/5 522/7/5
f 524/1/5 515/1/5 514/1/5
f 524/1/5 516/1/5 515/1/5
f 525/1/5 516/1/5 524/1/5
f 526/1/5 516/1/5 525/1/5
f 527/1/5 521/1/5 520/1/5
f 527/1/5 520/1/5 519/1/5
f 528/1/5 521/1/5 527/1/5
f 529/1/5 521/1/5 528/1/5
f 530/1/5 526/1/5 525/1/5
f 530/1/5 528/1/5 527/1/5
f 530/1/5 527/1/5 526/1/5
f 531/1/5 528/1/5 530/1/5
f 532/1/5 528/1/5 531/1/5
f 533/1/5 528/1/5 532/1/5
f 534/1/5 532/1/5 531/1/5
f 535/1/5 532/1/5 534/1/5
f 536/1/5 532/1/5 535/1/5
f 537/1/5 532/1/5 536/1/5
f 538/1/5 536/1/5 535/1/5
f 539/1/5 536/1/5 538/1/5
f 540/4/6 541/4/6 545/4/6
f 542/4/6 543/4/6 546/4/6
f 544/4/6 545/4/6 548/4/6
f 545/4/6 541/4/6 549/4/6
f 548/4/6 545/4/6 549/4/6
f 546/4/6 547/4/6 550/4/6
f 542/4/6 546/4/6 550/4/6
f 550/4/6 547/4/6 551/4/6
f 549/4/6 541/4/6 552/4/6
f 552/4/6 541/4/6 553/4/6
f 542/4/6 550/4/6 554/4/6
f 554/4/6 550/4/6 555/4/6
f 556/2/6 557/2/6 560/2/6
f 560/2/6 557/2/6 561/2/6
f 558/2/6 559/2/6 562/2/6
f 562/2/6 559/2/6 563/2/6
f 564/1/6 565/1/6 567/1/6
f 567/1/6 565/1/6 568/1/6
f 566/1/6 567/1/6 571/1/6
f 571/1/6 567/1/6 572/1/6
f 568/1/6 569/1/6 573/1/6
f 573/1/6 569/1/6 574/1/6
f 570/1/6 571/1/6 577/1/6
f 577/1/6 571/1/6 578/1/6
f 574/1/6 575/1/6 579/1/6
f 579/1/6 575/1/6 580/1/6
f 576/1/6 577/1/6 582/1/6
f 580/1/6 581/1/6 583/1/6
f 576/1/6 582/1/6 584/1/6
f 583/1/6 581/1/6 585/1/6
f 576/1/6 584/1/6 586/1/6
f 586/1/6 584/1/6 587/1/6
f 585/1/6 581/1/6 590/1/6
f 590/1/6 581/1/6 591/1/6
f 587/1/6 588/1/6 592/1/6
f 592/1/6 588/1/6 593/1/6
f 589/1/6 590/1/6 596/1/6
f 596/1/6 590/1/6 597/1/6
f 593/1/6 594/1/6 598/1/6
f 598/1/6 594/1/6 599/1/6
f 595/1/6 596/1/6 600/1/6
f 600/1/6 596/1/6 601/1/6
f 599/1/6 600/1/6 602/1/6
f 602/1/6 600/1/6 603/1/6
f 604/5/6 605/5/6 607/5/6
f 607/5/6 605/5/6 608/5/6
f 606/5/6 607/5/6 611/5/6
f 611/5/6 607/5/6 612/5/6
f 608/5/6 609/5/6 613/5/6
f 613/5/6 609/5/6 614/5/6
f 610/5/6 611/5/6 616/5/6
f 616/5/6 611/5/6 617/5/6
f 614/5/6 615/5/6 618/5/6
f 618/5/6 615/5/6 619/5/6
f 616/6/6 617/6/6 620/6/6
f 620/6/6 617/6/6 621/6/6
f 618/6/6 619/6/6 622/6/6
f 622/6/6 619/6/6 623/6/6
f 620/5/6 621/5/6 624/5/6
f 624/5/6 621/5/6 625/5/6
f 622/5/6 623/5/6 628/5/6
f 628/5/6 623/5/6 629/5/6
f 625/5/6 626/5/6 630/5/6
f 630/5/6 626/5/6 631/5/6
f 627/5/6 628/5/6 632/5/6
f 632/5/6 628/5/6 633/5/6
f 631/5/6 632/5/6 634/5/6
f 634/5/6 632/5/6 635/5/6
f 636/1/6 637/1/6 639/1/6
f 639/1/6 637/1/6 640/1/6
f 638/1/6 639/1/6 642/1/6
f 642/1/6 639/1/6 643/1/6
f 640/1/6 641/1/6 644/1/6
f 644/1/6 641/1/6 645/1/6
f 643/1/6 644/1/6 646/1/6
f 646/1/6 644/1/6 647/1/6
f 648/1/6 649/1/6 650/1/6
f 650/1/6 649/1/6 651/1/6
f 648/1/6 650/1/6 652/1/6
f 651/1/6 649/1/6 653/1/6
f 648/1/6 652/1/6 654/1/6
f 652/1/6 653/1/6 654/1/6
f 653/1/6 649/1/6 655/1/6
f 654/1/6 653/1/6 655/1/6
f 656/1/6 657/1/6 658/1/6
f 658/1/6 657/1/6 659/1/6
