# MagicaVoxel @ Ephtracy

# group
o 

# material
mtllib porta esquerda estufa.mtl
usemtl palette

# normals
vn -1 0 0
vn 1 0 0
vn 0 0 1
vn 0 0 -1
vn 0 -1 0
vn 0 1 0

# texcoords
vt 0.978516 0.5
vt 0.986328 0.5
vt 0.994141 0.5

# verts
v 1 2.1 -2.9
v 1 2.1 -3
v 1 2.2 -2.9
v 1 2.2 -3
v 1.1 0.4 -2.1
v 1.1 0.4 -2.9
v 1.1 0.4 -3
v 1.1 0.5 -2.7
v 1.1 0.5 -2.9
v 1.1 0.5 -3
v 1.1 0.6 -2.5
v 1.1 0.6 -2.7
v 1.1 0.6 -2.9
v 1.1 0.7 -2.3
v 1.1 0.7 -2.5
v 1.1 0.7 -2.7
v 1.1 0.8 -2.1
v 1.1 0.8 -2.3
v 1.1 0.8 -2.5
v 1.1 0.9 -2.2
v 1.1 0.9 -2.3
v 1.1 1 -2.1
v 1.1 1 -2.2
v 1.1 1 -2.4
v 1.1 1.1 -2.2
v 1.1 1.1 -2.4
v 1.1 1.1 -2.6
v 1.1 1.2 -2.4
v 1.1 1.2 -2.6
v 1.1 1.2 -2.8
v 1.1 1.3 -2.6
v 1.1 1.3 -2.8
v 1.1 1.3 -3
v 1.1 1.4 -2.8
v 1.1 1.4 -2.9
v 1.1 1.5 -2.8
v 1.1 1.5 -2.9
v 1.1 1.5 -3
v 1.1 1.6 -2.6
v 1.1 1.6 -2.8
v 1.1 1.6 -2.9
v 1.1 1.7 -2.5
v 1.1 1.7 -2.6
v 1.1 1.7 -2.8
v 1.1 1.8 -2.4
v 1.1 1.8 -2.5
v 1.1 1.8 -2.6
v 1.1 1.9 -2.2
v 1.1 1.9 -2.4
v 1.1 1.9 -2.5
v 1.1 2 -2.1
v 1.1 2 -2.2
v 1.1 2 -2.4
v 1.1 2.1 -2.9
v 1.1 2.1 -3
v 1.1 2.2 -2.1
v 1.1 2.2 -2.2
v 1.1 2.2 -2.4
v 1.1 2.2 -2.9
v 1.1 2.2 -3
v 1.1 2.3 -2.2
v 1.1 2.3 -2.4
v 1.1 2.3 -2.5
v 1.1 2.4 -2.4
v 1.1 2.4 -2.5
v 1.1 2.4 -2.7
v 1.1 2.5 -2.5
v 1.1 2.5 -2.7
v 1.1 2.5 -2.9
v 1.1 2.6 -2.7
v 1.1 2.6 -2.9
v 1.1 2.6 -3
v 1.1 2.8 -2.8
v 1.1 2.8 -2.9
v 1.1 2.8 -3
v 1.1 2.9 -2.7
v 1.1 2.9 -2.8
v 1.1 2.9 -2.9
v 1.1 3 -2.6
v 1.1 3 -2.7
v 1.1 3 -2.8
v 1.1 3.1 -2.4
v 1.1 3.1 -2.6
v 1.1 3.1 -2.7
v 1.1 3.2 -2.3
v 1.1 3.2 -2.4
v 1.1 3.2 -2.6
v 1.1 3.3 -2.2
v 1.1 3.3 -2.3
v 1.1 3.3 -2.4
v 1.1 3.4 -2.1
v 1.1 3.4 -2.2
v 1.1 3.4 -2.3
v 1.1 3.5 -2.1
v 1.1 3.5 -2.2
v 1.1 3.5 -3
v 1.2 0.4 -2.1
v 1.2 0.4 -2.9
v 1.2 0.4 -3
v 1.2 0.5 -2.7
v 1.2 0.5 -2.9
v 1.2 0.5 -3
v 1.2 0.6 -2.5
v 1.2 0.6 -2.7
v 1.2 0.6 -2.9
v 1.2 0.7 -2.3
v 1.2 0.7 -2.5
v 1.2 0.7 -2.7
v 1.2 0.8 -2.1
v 1.2 0.8 -2.3
v 1.2 0.8 -2.5
v 1.2 0.9 -2.2
v 1.2 0.9 -2.3
v 1.2 1 -2.1
v 1.2 1 -2.2
v 1.2 1 -2.4
v 1.2 1.1 -2.2
v 1.2 1.1 -2.4
v 1.2 1.1 -2.6
v 1.2 1.2 -2.4
v 1.2 1.2 -2.6
v 1.2 1.2 -2.8
v 1.2 1.3 -2.6
v 1.2 1.3 -2.8
v 1.2 1.3 -3
v 1.2 1.4 -2.8
v 1.2 1.4 -2.9
v 1.2 1.5 -2.8
v 1.2 1.5 -2.9
v 1.2 1.5 -3
v 1.2 1.6 -2.6
v 1.2 1.6 -2.8
v 1.2 1.6 -2.9
v 1.2 1.7 -2.5
v 1.2 1.7 -2.6
v 1.2 1.7 -2.8
v 1.2 1.8 -2.4
v 1.2 1.8 -2.5
v 1.2 1.8 -2.6
v 1.2 1.9 -2.2
v 1.2 1.9 -2.4
v 1.2 1.9 -2.5
v 1.2 2 -2.1
v 1.2 2 -2.2
v 1.2 2 -2.4
v 1.2 2.2 -2.1
v 1.2 2.2 -2.2
v 1.2 2.2 -2.4
v 1.2 2.3 -2.2
v 1.2 2.3 -2.4
v 1.2 2.3 -2.5
v 1.2 2.4 -2.4
v 1.2 2.4 -2.5
v 1.2 2.4 -2.7
v 1.2 2.5 -2.5
v 1.2 2.5 -2.7
v 1.2 2.5 -2.9
v 1.2 2.6 -2.7
v 1.2 2.6 -2.9
v 1.2 2.6 -3
v 1.2 2.8 -2.8
v 1.2 2.8 -2.9
v 1.2 2.8 -3
v 1.2 2.9 -2.7
v 1.2 2.9 -2.8
v 1.2 2.9 -2.9
v 1.2 3 -2.6
v 1.2 3 -2.7
v 1.2 3 -2.8
v 1.2 3.1 -2.4
v 1.2 3.1 -2.6
v 1.2 3.1 -2.7
v 1.2 3.2 -2.3
v 1.2 3.2 -2.4
v 1.2 3.2 -2.6
v 1.2 3.3 -2.2
v 1.2 3.3 -2.3
v 1.2 3.3 -2.4
v 1.2 3.4 -2.1
v 1.2 3.4 -2.2
v 1.2 3.4 -2.3
v 1.2 3.5 -2.1
v 1.2 3.5 -2.2
v 1.2 3.5 -3
v 1.1 0.4 -2.1
v 1.1 0.8 -2.1
v 1.1 1 -2.1
v 1.1 2 -2.1
v 1.1 2.2 -2.1
v 1.1 3.4 -2.1
v 1.1 3.5 -2.1
v 1.2 0.4 -2.1
v 1.2 0.8 -2.1
v 1.2 1 -2.1
v 1.2 2 -2.1
v 1.2 2.2 -2.1
v 1.2 3.4 -2.1
v 1.2 3.5 -2.1
v 1 2.1 -2.9
v 1 2.2 -2.9
v 1.1 2.1 -2.9
v 1.1 2.2 -2.9
v 1 2.1 -3
v 1 2.2 -3
v 1.1 0.4 -3
v 1.1 0.5 -3
v 1.1 1.3 -3
v 1.1 1.5 -3
v 1.1 2.1 -3
v 1.1 2.2 -3
v 1.1 2.6 -3
v 1.1 2.8 -3
v 1.1 3.5 -3
v 1.2 0.4 -3
v 1.2 0.5 -3
v 1.2 1.3 -3
v 1.2 1.5 -3
v 1.2 2.6 -3
v 1.2 2.8 -3
v 1.2 3.5 -3
v 1.1 0.4 -2.1
v 1.2 0.4 -2.1
v 1.1 0.4 -2.9
v 1.2 0.4 -2.9
v 1.1 0.4 -3
v 1.2 0.4 -3
v 1 2.1 -2.9
v 1.1 2.1 -2.9
v 1 2.1 -3
v 1.1 2.1 -3
v 1 2.2 -2.9
v 1.1 2.2 -2.9
v 1 2.2 -3
v 1.1 2.2 -3
v 1.1 3.5 -2.1
v 1.2 3.5 -2.1
v 1.1 3.5 -2.2
v 1.2 3.5 -2.2
v 1.1 3.5 -3
v 1.2 3.5 -3

# faces
f 3/3/1 2/3/1 1/3/1
f 4/3/1 2/3/1 3/3/1
f 8/1/1 6/1/1 5/1/1
f 9/2/1 7/2/1 6/2/1
f 9/1/1 6/1/1 8/1/1
f 10/2/1 7/2/1 9/2/1
f 11/1/1 8/1/1 5/1/1
f 12/2/1 9/2/1 8/2/1
f 12/1/1 8/1/1 11/1/1
f 13/1/1 10/1/1 9/1/1
f 13/2/1 9/2/1 12/2/1
f 14/1/1 11/1/1 5/1/1
f 15/2/1 12/2/1 11/2/1
f 15/1/1 11/1/1 14/1/1
f 16/1/1 13/1/1 12/1/1
f 16/2/1 12/2/1 15/2/1
f 17/1/1 14/1/1 5/1/1
f 18/2/1 15/2/1 14/2/1
f 18/1/1 14/1/1 17/1/1
f 19/1/1 16/1/1 15/1/1
f 19/2/1 15/2/1 18/2/1
f 20/2/1 18/2/1 17/2/1
f 21/1/1 19/1/1 18/1/1
f 21/2/1 18/2/1 20/2/1
f 22/2/1 20/2/1 17/2/1
f 23/1/1 21/1/1 20/1/1
f 23/2/1 20/2/1 22/2/1
f 24/1/1 19/1/1 21/1/1
f 24/1/1 21/1/1 23/1/1
f 25/1/1 23/1/1 22/1/1
f 25/2/1 24/2/1 23/2/1
f 26/1/1 19/1/1 24/1/1
f 26/2/1 24/2/1 25/2/1
f 27/1/1 16/1/1 19/1/1
f 27/1/1 19/1/1 26/1/1
f 28/1/1 26/1/1 25/1/1
f 28/2/1 27/2/1 26/2/1
f 29/1/1 16/1/1 27/1/1
f 29/2/1 27/2/1 28/2/1
f 30/1/1 13/1/1 16/1/1
f 30/1/1 16/1/1 29/1/1
f 31/1/1 29/1/1 28/1/1
f 31/2/1 30/2/1 29/2/1
f 32/1/1 13/1/1 30/1/1
f 32/2/1 30/2/1 31/2/1
f 33/1/1 10/1/1 13/1/1
f 33/1/1 13/1/1 32/1/1
f 34/1/1 32/1/1 31/1/1
f 34/2/1 33/2/1 32/2/1
f 35/2/1 33/2/1 34/2/1
f 36/1/1 34/1/1 31/1/1
f 36/1/1 35/1/1 34/1/1
f 37/2/1 33/2/1 35/2/1
f 37/1/1 35/1/1 36/1/1
f 38/2/1 33/2/1 37/2/1
f 39/1/1 31/1/1 28/1/1
f 39/1/1 36/1/1 31/1/1
f 40/2/1 37/2/1 36/2/1
f 40/1/1 36/1/1 39/1/1
f 41/1/1 38/1/1 37/1/1
f 41/2/1 37/2/1 40/2/1
f 42/1/1 39/1/1 28/1/1
f 43/2/1 40/2/1 39/2/1
f 43/1/1 39/1/1 42/1/1
f 44/1/1 41/1/1 40/1/1
f 44/2/1 40/2/1 43/2/1
f 45/1/1 28/1/1 25/1/1
f 45/1/1 42/1/1 28/1/1
f 46/2/1 43/2/1 42/2/1
f 46/1/1 42/1/1 45/1/1
f 47/1/1 44/1/1 43/1/1
f 47/2/1 43/2/1 46/2/1
f 48/1/1 25/1/1 22/1/1
f 48/1/1 45/1/1 25/1/1
f 49/2/1 46/2/1 45/2/1
f 49/1/1 45/1/1 48/1/1
f 50/1/1 47/1/1 46/1/1
f 50/2/1 46/2/1 49/2/1
f 51/1/1 48/1/1 22/1/1
f 52/2/1 49/2/1 48/2/1
f 52/1/1 48/1/1 51/1/1
f 53/1/1 50/1/1 49/1/1
f 53/2/1 49/2/1 52/2/1
f 54/1/1 41/1/1 44/1/1
f 54/1/1 50/1/1 53/1/1
f 54/1/1 53/1/1 52/1/1
f 54/1/1 44/1/1 47/1/1
f 54/1/1 47/1/1 50/1/1
f 54/1/1 38/1/1 41/1/1
f 55/1/1 38/1/1 54/1/1
f 56/2/1 52/2/1 51/2/1
f 57/1/1 54/1/1 52/1/1
f 57/2/1 52/2/1 56/2/1
f 58/1/1 54/1/1 57/1/1
f 59/1/1 54/1/1 58/1/1
f 61/1/1 57/1/1 56/1/1
f 61/2/1 58/2/1 57/2/1
f 62/1/1 60/1/1 59/1/1
f 62/2/1 58/2/1 61/2/1
f 62/1/1 59/1/1 58/1/1
f 63/1/1 60/1/1 62/1/1
f 64/1/1 62/1/1 61/1/1
f 64/2/1 63/2/1 62/2/1
f 65/1/1 60/1/1 63/1/1
f 65/2/1 63/2/1 64/2/1
f 66/1/1 60/1/1 65/1/1
f 67/1/1 65/1/1 64/1/1
f 67/2/1 66/2/1 65/2/1
f 68/1/1 60/1/1 66/1/1
f 68/2/1 66/2/1 67/2/1
f 69/1/1 60/1/1 68/1/1
f 70/1/1 68/1/1 67/1/1
f 70/2/1 69/2/1 68/2/1
f 71/1/1 60/1/1 69/1/1
f 71/2/1 69/2/1 70/2/1
f 72/1/1 60/1/1 71/1/1
f 73/1/1 71/1/1 70/1/1
f 74/2/1 72/2/1 71/2/1
f 74/1/1 71/1/1 73/1/1
f 75/2/1 72/2/1 74/2/1
f 76/1/1 70/1/1 67/1/1
f 76/1/1 73/1/1 70/1/1
f 77/2/1 74/2/1 73/2/1
f 77/1/1 73/1/1 76/1/1
f 78/1/1 75/1/1 74/1/1
f 78/2/1 74/2/1 77/2/1
f 79/1/1 76/1/1 67/1/1
f 80/2/1 77/2/1 76/2/1
f 80/1/1 76/1/1 79/1/1
f 81/1/1 78/1/1 77/1/1
f 81/2/1 77/2/1 80/2/1
f 82/1/1 64/1/1 61/1/1
f 82/1/1 67/1/1 64/1/1
f 82/1/1 79/1/1 67/1/1
f 83/2/1 80/2/1 79/2/1
f 83/1/1 79/1/1 82/1/1
f 84/1/1 81/1/1 80/1/1
f 84/2/1 80/2/1 83/2/1
f 85/1/1 82/1/1 61/1/1
f 86/2/1 83/2/1 82/2/1
f 86/1/1 82/1/1 85/1/1
f 87/1/1 84/1/1 83/1/1
f 87/2/1 83/2/1 86/2/1
f 88/1/1 61/1/1 56/1/1
f 88/1/1 85/1/1 61/1/1
f 89/2/1 86/2/1 85/2/1
f 89/1/1 85/1/1 88/1/1
f 90/1/1 87/1/1 86/1/1
f 90/2/1 86/2/1 89/2/1
f 91/1/1 88/1/1 56/1/1
f 92/2/1 89/2/1 88/2/1
f 92/1/1 88/1/1 91/1/1
f 93/1/1 90/1/1 89/1/1
f 93/2/1 89/2/1 92/2/1
f 94/2/1 92/2/1 91/2/1
f 95/1/1 93/1/1 92/1/1
f 95/2/1 92/2/1 94/2/1
f 96/1/1 84/1/1 87/1/1
f 96/1/1 93/1/1 95/1/1
f 96/1/1 78/1/1 81/1/1
f 96/1/1 81/1/1 84/1/1
f 96/1/1 90/1/1 93/1/1
f 96/1/1 87/1/1 90/1/1
f 96/1/1 75/1/1 78/1/1
f 97/1/2 98/1/2 100/1/2
f 98/2/2 99/2/2 101/2/2
f 100/1/2 98/1/2 101/1/2
f 101/2/2 99/2/2 102/2/2
f 97/1/2 100/1/2 103/1/2
f 100/2/2 101/2/2 104/2/2
f 103/1/2 100/1/2 104/1/2
f 101/1/2 102/1/2 105/1/2
f 104/2/2 101/2/2 105/2/2
f 97/1/2 103/1/2 106/1/2
f 103/2/2 104/2/2 107/2/2
f 106/1/2 103/1/2 107/1/2
f 104/1/2 105/1/2 108/1/2
f 107/2/2 104/2/2 108/2/2
f 97/1/2 106/1/2 109/1/2
f 106/2/2 107/2/2 110/2/2
f 109/1/2 106/1/2 110/1/2
f 107/1/2 108/1/2 111/1/2
f 110/2/2 107/2/2 111/2/2
f 109/2/2 110/2/2 112/2/2
f 110/1/2 111/1/2 113/1/2
f 112/2/2 110/2/2 113/2/2
f 109/2/2 112/2/2 114/2/2
f 112/1/2 113/1/2 115/1/2
f 114/2/2 112/2/2 115/2/2
f 113/1/2 111/1/2 116/1/2
f 115/1/2 113/1/2 116/1/2
f 114/1/2 115/1/2 117/1/2
f 115/2/2 116/2/2 117/2/2
f 116/1/2 111/1/2 118/1/2
f 117/2/2 116/2/2 118/2/2
f 111/1/2 108/1/2 119/1/2
f 118/1/2 111/1/2 119/1/2
f 117/1/2 118/1/2 120/1/2
f 118/2/2 119/2/2 120/2/2
f 119/1/2 108/1/2 121/1/2
f 120/2/2 119/2/2 121/2/2
f 108/1/2 105/1/2 122/1/2
f 121/1/2 108/1/2 122/1/2
f 120/1/2 121/1/2 123/1/2
f 121/2/2 122/2/2 123/2/2
f 122/1/2 105/1/2 124/1/2
f 123/2/2 122/2/2 124/2/2
f 105/1/2 102/1/2 125/1/2
f 124/1/2 105/1/2 125/1/2
f 123/1/2 124/1/2 126/1/2
f 124/2/2 125/2/2 126/2/2
f 126/2/2 125/2/2 127/2/2
f 123/1/2 126/1/2 128/1/2
f 126/1/2 127/1/2 128/1/2
f 127/2/2 125/2/2 129/2/2
f 128/1/2 127/1/2 129/1/2
f 129/2/2 125/2/2 130/2/2
f 120/1/2 123/1/2 131/1/2
f 123/1/2 128/1/2 131/1/2
f 128/2/2 129/2/2 132/2/2
f 131/1/2 128/1/2 132/1/2
f 129/1/2 130/1/2 133/1/2
f 132/2/2 129/2/2 133/2/2
f 120/1/2 131/1/2 134/1/2
f 131/2/2 132/2/2 135/2/2
f 134/1/2 131/1/2 135/1/2
f 132/1/2 133/1/2 136/1/2
f 135/2/2 132/2/2 136/2/2
f 117/1/2 120/1/2 137/1/2
f 120/1/2 134/1/2 137/1/2
f 134/2/2 135/2/2 138/2/2
f 137/1/2 134/1/2 138/1/2
f 135/1/2 136/1/2 139/1/2
f 138/2/2 135/2/2 139/2/2
f 114/1/2 117/1/2 140/1/2
f 117/1/2 137/1/2 140/1/2
f 137/2/2 138/2/2 141/2/2
f 140/1/2 137/1/2 141/1/2
f 138/1/2 139/1/2 142/1/2
f 141/2/2 138/2/2 142/2/2
f 114/1/2 140/1/2 143/1/2
f 140/2/2 141/2/2 144/2/2
f 143/1/2 140/1/2 144/1/2
f 141/1/2 142/1/2 145/1/2
f 144/2/2 141/2/2 145/2/2
f 143/2/2 144/2/2 146/2/2
f 144/1/2 145/1/2 147/1/2
f 146/2/2 144/2/2 147/2/2
f 145/1/2 142/1/2 148/1/2
f 147/1/2 145/1/2 148/1/2
f 146/1/2 147/1/2 149/1/2
f 147/2/2 148/2/2 149/2/2
f 148/1/2 142/1/2 150/1/2
f 149/2/2 148/2/2 150/2/2
f 142/1/2 139/1/2 151/1/2
f 150/1/2 142/1/2 151/1/2
f 149/1/2 150/1/2 152/1/2
f 150/2/2 151/2/2 152/2/2
f 151/1/2 139/1/2 153/1/2
f 152/2/2 151/2/2 153/2/2
f 139/1/2 136/1/2 154/1/2
f 153/1/2 139/1/2 154/1/2
f 152/1/2 153/1/2 155/1/2
f 153/2/2 154/2/2 155/2/2
f 154/1/2 136/1/2 156/1/2
f 155/2/2 154/2/2 156/2/2
f 136/1/2 133/1/2 157/1/2
f 156/1/2 136/1/2 157/1/2
f 133/1/2 130/1/2 157/1/2
f 155/1/2 156/1/2 158/1/2
f 156/2/2 157/2/2 158/2/2
f 157/1/2 130/1/2 159/1/2
f 158/2/2 157/2/2 159/2/2
f 159/1/2 130/1/2 160/1/2
f 158/1/2 159/1/2 161/1/2
f 159/2/2 160/2/2 162/2/2
f 161/1/2 159/1/2 162/1/2
f 162/2/2 160/2/2 163/2/2
f 155/1/2 158/1/2 164/1/2
f 158/1/2 161/1/2 164/1/2
f 161/2/2 162/2/2 165/2/2
f 164/1/2 161/1/2 165/1/2
f 162/1/2 163/1/2 166/1/2
f 165/2/2 162/2/2 166/2/2
f 155/1/2 164/1/2 167/1/2
f 164/2/2 165/2/2 168/2/2
f 167/1/2 164/1/2 168/1/2
f 165/1/2 166/1/2 169/1/2
f 168/2/2 165/2/2 169/2/2
f 152/1/2 155/1/2 170/1/2
f 149/1/2 152/1/2 170/1/2
f 155/1/2 167/1/2 170/1/2
f 167/2/2 168/2/2 171/2/2
f 170/1/2 167/1/2 171/1/2
f 168/1/2 169/1/2 172/1/2
f 171/2/2 168/2/2 172/2/2
f 149/1/2 170/1/2 173/1/2
f 170/2/2 171/2/2 174/2/2
f 173/1/2 170/1/2 174/1/2
f 171/1/2 172/1/2 175/1/2
f 174/2/2 171/2/2 175/2/2
f 149/1/2 173/1/2 176/1/2
f 146/1/2 149/1/2 176/1/2
f 173/2/2 174/2/2 177/2/2
f 176/1/2 173/1/2 177/1/2
f 174/1/2 175/1/2 178/1/2
f 177/2/2 174/2/2 178/2/2
f 146/1/2 176/1/2 179/1/2
f 176/2/2 177/2/2 180/2/2
f 179/1/2 176/1/2 180/1/2
f 177/1/2 178/1/2 181/1/2
f 180/2/2 177/2/2 181/2/2
f 179/2/2 180/2/2 182/2/2
f 180/1/2 181/1/2 183/1/2
f 182/2/2 180/2/2 183/2/2
f 169/1/2 166/1/2 184/1/2
f 183/1/2 181/1/2 184/1/2
f 175/1/2 172/1/2 184/1/2
f 172/1/2 169/1/2 184/1/2
f 181/1/2 178/1/2 184/1/2
f 178/1/2 175/1/2 184/1/2
f 166/1/2 163/1/2 184/1/2
f 192/1/3 186/1/3 185/1/3
f 193/2/3 187/2/3 186/2/3
f 193/1/3 186/1/3 192/1/3
f 194/1/3 188/1/3 187/1/3
f 194/2/3 187/2/3 193/2/3
f 195/2/3 189/2/3 188/2/3
f 195/1/3 188/1/3 194/1/3
f 196/1/3 190/1/3 189/1/3
f 196/2/3 189/2/3 195/2/3
f 197/2/3 191/2/3 190/2/3
f 197/1/3 190/1/3 196/1/3
f 198/2/3 191/2/3 197/2/3
f 201/3/3 200/3/3 199/3/3
f 202/3/3 200/3/3 201/3/3
f 203/3/4 204/3/4 209/3/4
f 209/3/4 204/3/4 210/3/4
f 205/2/4 206/2/4 214/2/4
f 206/1/4 207/1/4 215/1/4
f 214/2/4 206/2/4 215/2/4
f 207/2/4 208/2/4 216/2/4
f 215/1/4 207/1/4 216/1/4
f 208/1/4 209/1/4 217/1/4
f 216/2/4 208/2/4 217/2/4
f 209/1/4 210/1/4 217/1/4
f 210/1/4 211/1/4 217/1/4
f 211/2/4 212/2/4 218/2/4
f 217/1/4 211/1/4 218/1/4
f 212/1/4 213/1/4 219/1/4
f 218/2/4 212/2/4 219/2/4
f 219/1/4 213/1/4 220/1/4
f 223/1/5 222/1/5 221/1/5
f 224/1/5 222/1/5 223/1/5
f 225/2/5 224/2/5 223/2/5
f 226/2/5 224/2/5 225/2/5
f 229/3/5 228/3/5 227/3/5
f 230/3/5 228/3/5 229/3/5
f 231/3/6 232/3/6 233/3/6
f 233/3/6 232/3/6 234/3/6
f 235/2/6 236/2/6 237/2/6
f 237/2/6 236/2/6 238/2/6
f 237/1/6 238/1/6 239/1/6
f 239/1/6 238/1/6 240/1/6
