# MagicaVoxel @ Ephtracy

# group
o 

# material
mtllib Casa pro P.I.mtl
usemtl palette

# normals
vn -1 0 0
vn 1 0 0
vn 0 0 1
vn 0 0 -1
vn 0 -1 0
vn 0 1 0

# texcoords
vt 0.0605469 0.5
vt 0.369141 0.5
vt 0.865234 0.5

# verts
v 0 2.4 -0.6
v 0 2.4 -4.6
v 0 2.5 -0.6
v 0 2.5 -4.6
v 0.1 2.1 -0.7
v 0.1 2.1 -4.5
v 0.1 2.4 -0.7
v 0.1 2.4 -4.5
v 0.2 0.4 -0.8
v 0.2 0.4 -4.4
v 0.2 2.1 -0.8
v 0.2 2.1 -4.4
v 0.2 2.5 -0.8
v 0.2 2.5 -4.4
v 0.2 2.6 -0.8
v 0.2 2.6 -4.4
v 0.4 2.6 -1
v 0.4 2.6 -4.2
v 0.4 2.7 -1
v 0.4 2.7 -4.2
v 0.5 1.3 -0.7
v 0.5 1.3 -0.8
v 0.5 1.8 -0.7
v 0.5 1.8 -0.8
v 0.6 2.7 -1.2
v 0.6 2.7 -4
v 0.6 2.8 -1.2
v 0.6 2.8 -4
v 0.8 2.8 -1.4
v 0.8 2.8 -3.8
v 0.8 2.9 -1.4
v 0.8 2.9 -3.8
v 1 2.9 -1.6
v 1 2.9 -3.7
v 1 3 -1.6
v 1 3 -3.7
v 1.2 3 -1.7
v 1.2 3 -3.5
v 1.2 3.1 -1.7
v 1.2 3.1 -3.5
v 1.4 3.1 -1.9
v 1.4 3.1 -3.3
v 1.4 3.2 -1.9
v 1.4 3.2 -3.3
v 1.6 3.2 -2.1
v 1.6 3.2 -3.1
v 1.6 3.3 -2.1
v 1.6 3.3 -3.1
v 1.8 3.3 -2.3
v 1.8 3.3 -2.9
v 1.8 3.4 -2.3
v 1.8 3.4 -2.9
v 2 3.4 -2.4
v 2 3.4 -2.8
v 2 3.5 -2.4
v 2 3.5 -2.8
v 2.1 3.5 -2.5
v 2.1 3.5 -2.7
v 2.1 3.6 -2.5
v 2.1 3.6 -2.7
v 2.2 1.4 -0.7
v 2.2 1.4 -0.9
v 2.2 1.7 -0.7
v 2.2 1.7 -0.9
v 3 0.4 -0.7
v 3 0.4 -0.8
v 3 1.5 -0.7
v 3 1.5 -0.8
v 3.1 0.4 -0.6
v 3.1 0.4 -0.7
v 3.1 0.5 -0.6
v 3.1 0.5 -0.7
v 3.3 1.5 -0.7
v 3.3 1.5 -0.8
v 3.3 1.6 -0.7
v 3.3 1.6 -0.8
v 3.8 1.4 -0.7
v 3.8 1.4 -0.9
v 3.8 1.5 -0.7
v 3.8 1.5 -0.9
v 4 0.6 -0.7
v 4 0.6 -0.9
v 4 1.4 -0.7
v 4 1.4 -0.9
v 4.7 0.6 -0.9
v 4.7 0.6 -4.3
v 4.7 2.1 -0.9
v 4.7 2.1 -4.3
v 0.3 0.6 -0.9
v 0.3 0.6 -4.3
v 0.3 2.1 -0.9
v 0.3 2.1 -4.3
v 0.6 1.4 -0.7
v 0.6 1.4 -0.9
v 0.6 1.7 -0.7
v 0.6 1.7 -0.9
v 2.3 1.3 -0.7
v 2.3 1.3 -0.8
v 2.3 1.8 -0.7
v 2.3 1.8 -0.8
v 3 3.5 -2.5
v 3 3.5 -2.7
v 3 3.6 -2.5
v 3 3.6 -2.7
v 3.1 0.6 -0.7
v 3.1 0.6 -0.9
v 3.1 1.4 -0.7
v 3.1 1.4 -0.9
v 3.1 3.4 -2.4
v 3.1 3.4 -2.8
v 3.1 3.5 -2.4
v 3.1 3.5 -2.8
v 3.2 3.3 -2.3
v 3.2 3.3 -2.9
v 3.2 3.4 -2.3
v 3.2 3.4 -2.9
v 3.3 1.4 -0.7
v 3.3 1.4 -0.9
v 3.3 1.5 -0.7
v 3.3 1.5 -0.9
v 3.4 3.2 -2.1
v 3.4 3.2 -3.1
v 3.4 3.3 -2.1
v 3.4 3.3 -3.1
v 3.6 3.1 -1.9
v 3.6 3.1 -3.3
v 3.6 3.2 -1.9
v 3.6 3.2 -3.3
v 3.8 1.5 -0.7
v 3.8 1.5 -0.8
v 3.8 1.6 -0.7
v 3.8 1.6 -0.8
v 3.8 3 -1.7
v 3.8 3 -3.5
v 3.8 3.1 -1.7
v 3.8 3.1 -3.5
v 4 0.4 -0.6
v 4 0.4 -0.7
v 4 0.5 -0.6
v 4 0.5 -0.7
v 4 2.9 -1.6
v 4 2.9 -3.7
v 4 3 -1.6
v 4 3 -3.7
v 4.1 0.4 -0.7
v 4.1 0.4 -0.8
v 4.1 1.5 -0.7
v 4.1 1.5 -0.8
v 4.2 2.8 -1.4
v 4.2 2.8 -3.8
v 4.2 2.9 -1.4
v 4.2 2.9 -3.8
v 4.4 2.7 -1.2
v 4.4 2.7 -4
v 4.4 2.8 -1.2
v 4.4 2.8 -4
v 4.6 2.6 -1
v 4.6 2.6 -4.2
v 4.6 2.7 -1
v 4.6 2.7 -4.2
v 4.8 0.4 -0.8
v 4.8 0.4 -4.4
v 4.8 2.1 -0.8
v 4.8 2.1 -4.4
v 4.8 2.5 -0.8
v 4.8 2.5 -4.4
v 4.8 2.6 -0.8
v 4.8 2.6 -4.4
v 4.9 2.1 -0.7
v 4.9 2.1 -4.5
v 4.9 2.4 -0.7
v 4.9 2.4 -4.5
v 5 2.4 -0.6
v 5 2.4 -4.6
v 5 2.5 -0.6
v 5 2.5 -4.6
v 0 2.4 -0.6
v 0 2.5 -0.6
v 3.1 0.4 -0.6
v 3.1 0.5 -0.6
v 4 0.4 -0.6
v 4 0.5 -0.6
v 5 2.4 -0.6
v 5 2.5 -0.6
v 0.1 2.1 -0.7
v 0.1 2.4 -0.7
v 0.5 1.3 -0.7
v 0.5 1.8 -0.7
v 0.6 1.4 -0.7
v 0.6 1.7 -0.7
v 2.2 1.4 -0.7
v 2.2 1.7 -0.7
v 2.3 1.3 -0.7
v 2.3 1.8 -0.7
v 3 0.4 -0.7
v 3 1.5 -0.7
v 3.1 0.4 -0.7
v 3.1 0.5 -0.7
v 3.1 0.6 -0.7
v 3.1 1.4 -0.7
v 3.3 1.4 -0.7
v 3.3 1.5 -0.7
v 3.3 1.6 -0.7
v 3.8 1.4 -0.7
v 3.8 1.5 -0.7
v 3.8 1.6 -0.7
v 4 0.4 -0.7
v 4 0.5 -0.7
v 4 0.6 -0.7
v 4 1.4 -0.7
v 4.1 0.4 -0.7
v 4.1 1.5 -0.7
v 4.9 2.1 -0.7
v 4.9 2.4 -0.7
v 0.2 0.4 -0.8
v 0.2 2.1 -0.8
v 0.2 2.5 -0.8
v 0.2 2.6 -0.8
v 0.5 1.3 -0.8
v 0.5 1.8 -0.8
v 2.3 1.3 -0.8
v 2.3 1.8 -0.8
v 3 0.4 -0.8
v 3 1.5 -0.8
v 3.3 1.5 -0.8
v 3.3 1.6 -0.8
v 3.8 1.5 -0.8
v 3.8 1.6 -0.8
v 4.1 0.4 -0.8
v 4.1 1.5 -0.8
v 4.8 0.4 -0.8
v 4.8 2.1 -0.8
v 4.8 2.5 -0.8
v 4.8 2.6 -0.8
v 0.4 2.6 -1
v 0.4 2.7 -1
v 4.6 2.6 -1
v 4.6 2.7 -1
v 0.6 2.7 -1.2
v 0.6 2.8 -1.2
v 4.4 2.7 -1.2
v 4.4 2.8 -1.2
v 0.8 2.8 -1.4
v 0.8 2.9 -1.4
v 4.2 2.8 -1.4
v 4.2 2.9 -1.4
v 1 2.9 -1.6
v 1 3 -1.6
v 4 2.9 -1.6
v 4 3 -1.6
v 1.2 3 -1.7
v 1.2 3.1 -1.7
v 3.8 3 -1.7
v 3.8 3.1 -1.7
v 1.4 3.1 -1.9
v 1.4 3.2 -1.9
v 3.6 3.1 -1.9
v 3.6 3.2 -1.9
v 1.6 3.2 -2.1
v 1.6 3.3 -2.1
v 3.4 3.2 -2.1
v 3.4 3.3 -2.1
v 1.8 3.3 -2.3
v 1.8 3.4 -2.3
v 3.2 3.3 -2.3
v 3.2 3.4 -2.3
v 2 3.4 -2.4
v 2 3.5 -2.4
v 3.1 3.4 -2.4
v 3.1 3.5 -2.4
v 2.1 3.5 -2.5
v 2.1 3.6 -2.5
v 3 3.5 -2.5
v 3 3.6 -2.5
v 0.3 0.6 -4.3
v 0.3 2.1 -4.3
v 4.7 0.6 -4.3
v 4.7 2.1 -4.3
v 0.3 0.6 -0.9
v 0.3 2.1 -0.9
v 0.6 1.4 -0.9
v 0.6 1.7 -0.9
v 2.2 1.4 -0.9
v 2.2 1.7 -0.9
v 3.1 0.6 -0.9
v 3.1 1.4 -0.9
v 3.3 1.4 -0.9
v 3.3 1.5 -0.9
v 3.8 1.4 -0.9
v 3.8 1.5 -0.9
v 4 0.6 -0.9
v 4 1.4 -0.9
v 4.7 0.6 -0.9
v 4.7 2.1 -0.9
v 2.1 3.5 -2.7
v 2.1 3.6 -2.7
v 3 3.5 -2.7
v 3 3.6 -2.7
v 2 3.4 -2.8
v 2 3.5 -2.8
v 3.1 3.4 -2.8
v 3.1 3.5 -2.8
v 1.8 3.3 -2.9
v 1.8 3.4 -2.9
v 3.2 3.3 -2.9
v 3.2 3.4 -2.9
v 1.6 3.2 -3.1
v 1.6 3.3 -3.1
v 3.4 3.2 -3.1
v 3.4 3.3 -3.1
v 1.4 3.1 -3.3
v 1.4 3.2 -3.3
v 3.6 3.1 -3.3
v 3.6 3.2 -3.3
v 1.2 3 -3.5
v 1.2 3.1 -3.5
v 3.8 3 -3.5
v 3.8 3.1 -3.5
v 1 2.9 -3.7
v 1 3 -3.7
v 4 2.9 -3.7
v 4 3 -3.7
v 0.8 2.8 -3.8
v 0.8 2.9 -3.8
v 4.2 2.8 -3.8
v 4.2 2.9 -3.8
v 0.6 2.7 -4
v 0.6 2.8 -4
v 4.4 2.7 -4
v 4.4 2.8 -4
v 0.4 2.6 -4.2
v 0.4 2.7 -4.2
v 4.6 2.6 -4.2
v 4.6 2.7 -4.2
v 0.2 0.4 -4.4
v 0.2 2.1 -4.4
v 0.2 2.5 -4.4
v 0.2 2.6 -4.4
v 4.8 0.4 -4.4
v 4.8 2.1 -4.4
v 4.8 2.5 -4.4
v 4.8 2.6 -4.4
v 0.1 2.1 -4.5
v 0.1 2.4 -4.5
v 4.9 2.1 -4.5
v 4.9 2.4 -4.5
v 0 2.4 -4.6
v 0 2.5 -4.6
v 5 2.4 -4.6
v 5 2.5 -4.6
v 3.1 0.4 -0.6
v 4 0.4 -0.6
v 3 0.4 -0.7
v 3.1 0.4 -0.7
v 4 0.4 -0.7
v 4.1 0.4 -0.7
v 0.2 0.4 -0.8
v 3 0.4 -0.8
v 4.1 0.4 -0.8
v 4.8 0.4 -0.8
v 0.2 0.4 -4.4
v 4.8 0.4 -4.4
v 0.5 1.3 -0.7
v 2.3 1.3 -0.7
v 0.5 1.3 -0.8
v 2.3 1.3 -0.8
v 3.1 1.4 -0.7
v 3.3 1.4 -0.7
v 3.8 1.4 -0.7
v 4 1.4 -0.7
v 3.1 1.4 -0.9
v 3.3 1.4 -0.9
v 3.8 1.4 -0.9
v 4 1.4 -0.9
v 3.3 1.5 -0.7
v 3.8 1.5 -0.7
v 3.3 1.5 -0.9
v 3.8 1.5 -0.9
v 0.6 1.7 -0.7
v 2.2 1.7 -0.7
v 0.6 1.7 -0.9
v 2.2 1.7 -0.9
v 0.1 2.1 -0.7
v 4.9 2.1 -0.7
v 0.2 2.1 -0.8
v 4.8 2.1 -0.8
v 0.3 2.1 -0.9
v 4.7 2.1 -0.9
v 0.3 2.1 -4.3
v 4.7 2.1 -4.3
v 0.2 2.1 -4.4
v 4.8 2.1 -4.4
v 0.1 2.1 -4.5
v 4.9 2.1 -4.5
v 0 2.4 -0.6
v 5 2.4 -0.6
v 0.1 2.4 -0.7
v 4.9 2.4 -0.7
v 0.1 2.4 -4.5
v 4.9 2.4 -4.5
v 0 2.4 -4.6
v 5 2.4 -4.6
v 3.1 0.5 -0.6
v 4 0.5 -0.6
v 3.1 0.5 -0.7
v 4 0.5 -0.7
v 3.1 0.6 -0.7
v 4 0.6 -0.7
v 0.3 0.6 -0.9
v 3.1 0.6 -0.9
v 4 0.6 -0.9
v 4.7 0.6 -0.9
v 0.3 0.6 -4.3
v 4.7 0.6 -4.3
v 0.6 1.4 -0.7
v 2.2 1.4 -0.7
v 0.6 1.4 -0.9
v 2.2 1.4 -0.9
v 3 1.5 -0.7
v 3.3 1.5 -0.7
v 3.8 1.5 -0.7
v 4.1 1.5 -0.7
v 3 1.5 -0.8
v 3.3 1.5 -0.8
v 3.8 1.5 -0.8
v 4.1 1.5 -0.8
v 3.3 1.6 -0.7
v 3.8 1.6 -0.7
v 3.3 1.6 -0.8
v 3.8 1.6 -0.8
v 0.5 1.8 -0.7
v 2.3 1.8 -0.7
v 0.5 1.8 -0.8
v 2.3 1.8 -0.8
v 0 2.5 -0.6
v 5 2.5 -0.6
v 0.2 2.5 -0.8
v 4.8 2.5 -0.8
v 0.2 2.5 -4.4
v 4.8 2.5 -4.4
v 0 2.5 -4.6
v 5 2.5 -4.6
v 0.2 2.6 -0.8
v 4.8 2.6 -0.8
v 0.4 2.6 -1
v 4.6 2.6 -1
v 0.4 2.6 -4.2
v 4.6 2.6 -4.2
v 0.2 2.6 -4.4
v 4.8 2.6 -4.4
v 0.4 2.7 -1
v 4.6 2.7 -1
v 0.6 2.7 -1.2
v 4.4 2.7 -1.2
v 0.6 2.7 -4
v 4.4 2.7 -4
v 0.4 2.7 -4.2
v 4.6 2.7 -4.2
v 0.6 2.8 -1.2
v 4.4 2.8 -1.2
v 0.8 2.8 -1.4
v 4.2 2.8 -1.4
v 0.8 2.8 -3.8
v 4.2 2.8 -3.8
v 0.6 2.8 -4
v 4.4 2.8 -4
v 0.8 2.9 -1.4
v 4.2 2.9 -1.4
v 1 2.9 -1.6
v 4 2.9 -1.6
v 1 2.9 -3.7
v 4 2.9 -3.7
v 0.8 2.9 -3.8
v 4.2 2.9 -3.8
v 1 3 -1.6
v 4 3 -1.6
v 1.2 3 -1.7
v 3.8 3 -1.7
v 1.2 3 -3.5
v 3.8 3 -3.5
v 1 3 -3.7
v 4 3 -3.7
v 1.2 3.1 -1.7
v 3.8 3.1 -1.7
v 1.4 3.1 -1.9
v 3.6 3.1 -1.9
v 1.4 3.1 -3.3
v 3.6 3.1 -3.3
v 1.2 3.1 -3.5
v 3.8 3.1 -3.5
v 1.4 3.2 -1.9
v 3.6 3.2 -1.9
v 1.6 3.2 -2.1
v 3.4 3.2 -2.1
v 1.6 3.2 -3.1
v 3.4 3.2 -3.1
v 1.4 3.2 -3.3
v 3.6 3.2 -3.3
v 1.6 3.3 -2.1
v 3.4 3.3 -2.1
v 1.8 3.3 -2.3
v 3.2 3.3 -2.3
v 1.8 3.3 -2.9
v 3.2 3.3 -2.9
v 1.6 3.3 -3.1
v 3.4 3.3 -3.1
v 1.8 3.4 -2.3
v 3.2 3.4 -2.3
v 2 3.4 -2.4
v 3.1 3.4 -2.4
v 2 3.4 -2.8
v 3.1 3.4 -2.8
v 1.8 3.4 -2.9
v 3.2 3.4 -2.9
v 2 3.5 -2.4
v 3.1 3.5 -2.4
v 2.1 3.5 -2.5
v 3 3.5 -2.5
v 2.1 3.5 -2.7
v 3 3.5 -2.7
v 2 3.5 -2.8
v 3.1 3.5 -2.8
v 2.1 3.6 -2.5
v 3 3.6 -2.5
v 2.1 3.6 -2.7
v 3 3.6 -2.7

# faces
f 3/3/1 2/3/1 1/3/1
f 4/3/1 2/3/1 3/3/1
f 7/1/1 6/1/1 5/1/1
f 8/1/1 6/1/1 7/1/1
f 11/2/1 10/2/1 9/2/1
f 12/2/1 10/2/1 11/2/1
f 15/3/1 14/3/1 13/3/1
f 16/3/1 14/3/1 15/3/1
f 19/3/1 18/3/1 17/3/1
f 20/3/1 18/3/1 19/3/1
f 23/2/1 22/2/1 21/2/1
f 24/2/1 22/2/1 23/2/1
f 27/3/1 26/3/1 25/3/1
f 28/3/1 26/3/1 27/3/1
f 31/3/1 30/3/1 29/3/1
f 32/3/1 30/3/1 31/3/1
f 35/3/1 34/3/1 33/3/1
f 36/3/1 34/3/1 35/3/1
f 39/3/1 38/3/1 37/3/1
f 40/3/1 38/3/1 39/3/1
f 43/3/1 42/3/1 41/3/1
f 44/3/1 42/3/1 43/3/1
f 47/3/1 46/3/1 45/3/1
f 48/3/1 46/3/1 47/3/1
f 51/3/1 50/3/1 49/3/1
f 52/3/1 50/3/1 51/3/1
f 55/3/1 54/3/1 53/3/1
f 56/3/1 54/3/1 55/3/1
f 59/3/1 58/3/1 57/3/1
f 60/3/1 58/3/1 59/3/1
f 63/2/1 62/2/1 61/2/1
f 64/2/1 62/2/1 63/2/1
f 67/2/1 66/2/1 65/2/1
f 68/2/1 66/2/1 67/2/1
f 71/2/1 70/2/1 69/2/1
f 72/2/1 70/2/1 71/2/1
f 75/2/1 74/2/1 73/2/1
f 76/2/1 74/2/1 75/2/1
f 79/2/1 78/2/1 77/2/1
f 80/2/1 78/2/1 79/2/1
f 83/2/1 82/2/1 81/2/1
f 84/2/1 82/2/1 83/2/1
f 87/2/1 86/2/1 85/2/1
f 88/2/1 86/2/1 87/2/1
f 89/2/2 90/2/2 91/2/2
f 91/2/2 90/2/2 92/2/2
f 93/2/2 94/2/2 95/2/2
f 95/2/2 94/2/2 96/2/2
f 97/2/2 98/2/2 99/2/2
f 99/2/2 98/2/2 100/2/2
f 101/3/2 102/3/2 103/3/2
f 103/3/2 102/3/2 104/3/2
f 105/2/2 106/2/2 107/2/2
f 107/2/2 106/2/2 108/2/2
f 109/3/2 110/3/2 111/3/2
f 111/3/2 110/3/2 112/3/2
f 113/3/2 114/3/2 115/3/2
f 115/3/2 114/3/2 116/3/2
f 117/2/2 118/2/2 119/2/2
f 119/2/2 118/2/2 120/2/2
f 121/3/2 122/3/2 123/3/2
f 123/3/2 122/3/2 124/3/2
f 125/3/2 126/3/2 127/3/2
f 127/3/2 126/3/2 128/3/2
f 129/2/2 130/2/2 131/2/2
f 131/2/2 130/2/2 132/2/2
f 133/3/2 134/3/2 135/3/2
f 135/3/2 134/3/2 136/3/2
f 137/2/2 138/2/2 139/2/2
f 139/2/2 138/2/2 140/2/2
f 141/3/2 142/3/2 143/3/2
f 143/3/2 142/3/2 144/3/2
f 145/2/2 146/2/2 147/2/2
f 147/2/2 146/2/2 148/2/2
f 149/3/2 150/3/2 151/3/2
f 151/3/2 150/3/2 152/3/2
f 153/3/2 154/3/2 155/3/2
f 155/3/2 154/3/2 156/3/2
f 157/3/2 158/3/2 159/3/2
f 159/3/2 158/3/2 160/3/2
f 161/2/2 162/2/2 163/2/2
f 163/2/2 162/2/2 164/2/2
f 165/3/2 166/3/2 167/3/2
f 167/3/2 166/3/2 168/3/2
f 169/1/2 170/1/2 171/1/2
f 171/1/2 170/1/2 172/1/2
f 173/3/2 174/3/2 175/3/2
f 175/3/2 174/3/2 176/3/2
f 181/2/3 180/2/3 179/2/3
f 182/2/3 180/2/3 181/2/3
f 183/3/3 178/3/3 177/3/3
f 184/3/3 178/3/3 183/3/3
f 189/2/3 188/2/3 187/2/3
f 190/2/3 188/2/3 189/2/3
f 191/2/3 189/2/3 187/2/3
f 192/2/3 188/2/3 190/2/3
f 193/2/3 191/2/3 187/2/3
f 193/2/3 192/2/3 191/2/3
f 194/2/3 188/2/3 192/2/3
f 194/2/3 192/2/3 193/2/3
f 197/2/3 196/2/3 195/2/3
f 198/2/3 196/2/3 197/2/3
f 199/2/3 196/2/3 198/2/3
f 200/2/3 196/2/3 199/2/3
f 201/2/3 196/2/3 200/2/3
f 202/2/3 196/2/3 201/2/3
f 205/2/3 203/2/3 202/2/3
f 206/2/3 203/2/3 205/2/3
f 208/2/3 199/2/3 198/2/3
f 209/2/3 199/2/3 208/2/3
f 210/2/3 205/2/3 204/2/3
f 211/2/3 209/2/3 208/2/3
f 211/2/3 210/2/3 209/2/3
f 211/2/3 208/2/3 207/2/3
f 212/2/3 205/2/3 210/2/3
f 212/2/3 210/2/3 211/2/3
f 213/1/3 186/1/3 185/1/3
f 214/1/3 186/1/3 213/1/3
f 219/2/3 216/2/3 215/2/3
f 220/2/3 216/2/3 219/2/3
f 221/2/3 219/2/3 215/2/3
f 222/2/3 216/2/3 220/2/3
f 223/2/3 221/2/3 215/2/3
f 223/2/3 222/2/3 221/2/3
f 224/2/3 222/2/3 223/2/3
f 225/2/3 222/2/3 224/2/3
f 226/2/3 222/2/3 225/2/3
f 228/2/3 222/2/3 226/2/3
f 230/2/3 228/2/3 227/2/3
f 231/2/3 230/2/3 229/2/3
f 232/2/3 216/2/3 222/2/3
f 232/2/3 230/2/3 231/2/3
f 232/2/3 222/2/3 228/2/3
f 232/2/3 228/2/3 230/2/3
f 233/3/3 218/3/3 217/3/3
f 234/3/3 218/3/3 233/3/3
f 237/3/3 236/3/3 235/3/3
f 238/3/3 236/3/3 237/3/3
f 241/3/3 240/3/3 239/3/3
f 242/3/3 240/3/3 241/3/3
f 245/3/3 244/3/3 243/3/3
f 246/3/3 244/3/3 245/3/3
f 249/3/3 248/3/3 247/3/3
f 250/3/3 248/3/3 249/3/3
f 253/3/3 252/3/3 251/3/3
f 254/3/3 252/3/3 253/3/3
f 257/3/3 256/3/3 255/3/3
f 258/3/3 256/3/3 257/3/3
f 261/3/3 260/3/3 259/3/3
f 262/3/3 260/3/3 261/3/3
f 265/3/3 264/3/3 263/3/3
f 266/3/3 264/3/3 265/3/3
f 269/3/3 268/3/3 267/3/3
f 270/3/3 268/3/3 269/3/3
f 273/3/3 272/3/3 271/3/3
f 274/3/3 272/3/3 273/3/3
f 277/2/3 276/2/3 275/2/3
f 278/2/3 276/2/3 277/2/3
f 279/2/4 280/2/4 281/2/4
f 281/2/4 280/2/4 282/2/4
f 279/2/4 281/2/4 283/2/4
f 282/2/4 280/2/4 284/2/4
f 279/2/4 283/2/4 285/2/4
f 283/2/4 284/2/4 285/2/4
f 285/2/4 284/2/4 286/2/4
f 286/2/4 284/2/4 287/2/4
f 287/2/4 284/2/4 288/2/4
f 288/2/4 284/2/4 290/2/4
f 289/2/4 290/2/4 292/2/4
f 291/2/4 292/2/4 293/2/4
f 284/2/4 280/2/4 294/2/4
f 293/2/4 292/2/4 294/2/4
f 290/2/4 284/2/4 294/2/4
f 292/2/4 290/2/4 294/2/4
f 295/3/4 296/3/4 297/3/4
f 297/3/4 296/3/4 298/3/4
f 299/3/4 300/3/4 301/3/4
f 301/3/4 300/3/4 302/3/4
f 303/3/4 304/3/4 305/3/4
f 305/3/4 304/3/4 306/3/4
f 307/3/4 308/3/4 309/3/4
f 309/3/4 308/3/4 310/3/4
f 311/3/4 312/3/4 313/3/4
f 313/3/4 312/3/4 314/3/4
f 315/3/4 316/3/4 317/3/4
f 317/3/4 316/3/4 318/3/4
f 319/3/4 320/3/4 321/3/4
f 321/3/4 320/3/4 322/3/4
f 323/3/4 324/3/4 325/3/4
f 325/3/4 324/3/4 326/3/4
f 327/3/4 328/3/4 329/3/4
f 329/3/4 328/3/4 330/3/4
f 331/3/4 332/3/4 333/3/4
f 333/3/4 332/3/4 334/3/4
f 335/2/4 336/2/4 339/2/4
f 339/2/4 336/2/4 340/2/4
f 337/3/4 338/3/4 341/3/4
f 341/3/4 338/3/4 342/3/4
f 343/1/4 344/1/4 345/1/4
f 345/1/4 344/1/4 346/1/4
f 347/3/4 348/3/4 349/3/4
f 349/3/4 348/3/4 350/3/4
f 354/2/5 352/2/5 351/2/5
f 355/2/5 352/2/5 354/2/5
f 358/2/5 354/2/5 353/2/5
f 358/2/5 356/2/5 355/2/5
f 358/2/5 355/2/5 354/2/5
f 359/2/5 356/2/5 358/2/5
f 361/2/5 358/2/5 357/2/5
f 361/2/5 360/2/5 359/2/5
f 361/2/5 359/2/5 358/2/5
f 362/2/5 360/2/5 361/2/5
f 365/2/5 364/2/5 363/2/5
f 366/2/5 364/2/5 365/2/5
f 371/2/5 368/2/5 367/2/5
f 372/2/5 368/2/5 371/2/5
f 373/2/5 370/2/5 369/2/5
f 374/2/5 370/2/5 373/2/5
f 377/2/5 376/2/5 375/2/5
f 378/2/5 376/2/5 377/2/5
f 381/2/5 380/2/5 379/2/5
f 382/2/5 380/2/5 381/2/5
f 385/1/5 384/1/5 383/1/5
f 386/1/5 384/1/5 385/1/5
f 389/1/5 388/1/5 387/1/5
f 390/1/5 388/1/5 389/1/5
f 391/1/5 385/1/5 383/1/5
f 392/1/5 384/1/5 386/1/5
f 393/1/5 391/1/5 383/1/5
f 393/1/5 392/1/5 391/1/5
f 394/1/5 384/1/5 392/1/5
f 394/1/5 392/1/5 393/1/5
f 397/3/5 396/3/5 395/3/5
f 398/3/5 396/3/5 397/3/5
f 399/3/5 397/3/5 395/3/5
f 400/3/5 396/3/5 398/3/5
f 401/3/5 399/3/5 395/3/5
f 401/3/5 400/3/5 399/3/5
f 402/3/5 396/3/5 400/3/5
f 402/3/5 400/3/5 401/3/5
f 403/2/6 404/2/6 405/2/6
f 405/2/6 404/2/6 406/2/6
f 407/2/6 408/2/6 410/2/6
f 410/2/6 408/2/6 411/2/6
f 409/2/6 410/2/6 413/2/6
f 411/2/6 412/2/6 413/2/6
f 410/2/6 411/2/6 413/2/6
f 413/2/6 412/2/6 414/2/6
f 415/2/6 416/2/6 417/2/6
f 417/2/6 416/2/6 418/2/6
f 419/2/6 420/2/6 423/2/6
f 423/2/6 420/2/6 424/2/6
f 421/2/6 422/2/6 425/2/6
f 425/2/6 422/2/6 426/2/6
f 427/2/6 428/2/6 429/2/6
f 429/2/6 428/2/6 430/2/6
f 431/2/6 432/2/6 433/2/6
f 433/2/6 432/2/6 434/2/6
f 435/3/6 436/3/6 437/3/6
f 437/3/6 436/3/6 438/3/6
f 435/3/6 437/3/6 439/3/6
f 438/3/6 436/3/6 440/3/6
f 435/3/6 439/3/6 441/3/6
f 439/3/6 440/3/6 441/3/6
f 440/3/6 436/3/6 442/3/6
f 441/3/6 440/3/6 442/3/6
f 443/3/6 444/3/6 445/3/6
f 445/3/6 444/3/6 446/3/6
f 443/3/6 445/3/6 447/3/6
f 446/3/6 444/3/6 448/3/6
f 443/3/6 447/3/6 449/3/6
f 447/3/6 448/3/6 449/3/6
f 448/3/6 444/3/6 450/3/6
f 449/3/6 448/3/6 450/3/6
f 451/3/6 452/3/6 453/3/6
f 453/3/6 452/3/6 454/3/6
f 451/3/6 453/3/6 455/3/6
f 454/3/6 452/3/6 456/3/6
f 451/3/6 455/3/6 457/3/6
f 455/3/6 456/3/6 457/3/6
f 456/3/6 452/3/6 458/3/6
f 457/3/6 456/3/6 458/3/6
f 459/3/6 460/3/6 461/3/6
f 461/3/6 460/3/6 462/3/6
f 459/3/6 461/3/6 463/3/6
f 462/3/6 460/3/6 464/3/6
f 459/3/6 463/3/6 465/3/6
f 463/3/6 464/3/6 465/3/6
f 464/3/6 460/3/6 466/3/6
f 465/3/6 464/3/6 466/3/6
f 467/3/6 468/3/6 469/3/6
f 469/3/6 468/3/6 470/3/6
f 467/3/6 469/3/6 471/3/6
f 470/3/6 468/3/6 472/3/6
f 467/3/6 471/3/6 473/3/6
f 471/3/6 472/3/6 473/3/6
f 472/3/6 468/3/6 474/3/6
f 473/3/6 472/3/6 474/3/6
f 475/3/6 476/3/6 477/3/6
f 477/3/6 476/3/6 478/3/6
f 475/3/6 477/3/6 479/3/6
f 478/3/6 476/3/6 480/3/6
f 475/3/6 479/3/6 481/3/6
f 479/3/6 480/3/6 481/3/6
f 480/3/6 476/3/6 482/3/6
f 481/3/6 480/3/6 482/3/6
f 483/3/6 484/3/6 485/3/6
f 485/3/6 484/3/6 486/3/6
f 483/3/6 485/3/6 487/3/6
f 486/3/6 484/3/6 488/3/6
f 483/3/6 487/3/6 489/3/6
f 487/3/6 488/3/6 489/3/6
f 488/3/6 484/3/6 490/3/6
f 489/3/6 488/3/6 490/3/6
f 491/3/6 492/3/6 493/3/6
f 493/3/6 492/3/6 494/3/6
f 491/3/6 493/3/6 495/3/6
f 494/3/6 492/3/6 496/3/6
f 491/3/6 495/3/6 497/3/6
f 495/3/6 496/3/6 497/3/6
f 496/3/6 492/3/6 498/3/6
f 497/3/6 496/3/6 498/3/6
f 499/3/6 500/3/6 501/3/6
f 501/3/6 500/3/6 502/3/6
f 499/3/6 501/3/6 503/3/6
f 502/3/6 500/3/6 504/3/6
f 499/3/6 503/3/6 505/3/6
f 503/3/6 504/3/6 505/3/6
f 504/3/6 500/3/6 506/3/6
f 505/3/6 504/3/6 506/3/6
f 507/3/6 508/3/6 509/3/6
f 509/3/6 508/3/6 510/3/6
f 507/3/6 509/3/6 511/3/6
f 510/3/6 508/3/6 512/3/6
f 507/3/6 511/3/6 513/3/6
f 511/3/6 512/3/6 513/3/6
f 512/3/6 508/3/6 514/3/6
f 513/3/6 512/3/6 514/3/6
f 515/3/6 516/3/6 517/3/6
f 517/3/6 516/3/6 518/3/6
f 515/3/6 517/3/6 519/3/6
f 518/3/6 516/3/6 520/3/6
f 515/3/6 519/3/6 521/3/6
f 519/3/6 520/3/6 521/3/6
f 520/3/6 516/3/6 522/3/6
f 521/3/6 520/3/6 522/3/6
f 523/3/6 524/3/6 525/3/6
f 525/3/6 524/3/6 526/3/6
