# MagicaVoxel @ Ephtracy

# group
o 

# material
mtllib Casa do P,I.mtl
usemtl palette

# normals
vn -1 0 0
vn 1 0 0
vn 0 0 1
vn 0 0 -1
vn 0 -1 0
vn 0 1 0

# texcoords
vt 0.0605469 0.5
vt 0.369141 0.5
vt 0.396484 0.5

# verts
v 0.6 3 -1.2
v 0.6 3 -5
v 0.6 3.3 -1.2
v 0.6 3.3 -5
v 0.7 0.4 -1.3
v 0.7 0.4 -4.9
v 0.7 3 -1.3
v 0.7 3 -4.9
v 0.7 3.3 -1.3
v 0.7 3.3 -4.9
v 0.7 3.4 -1.3
v 0.7 3.4 -4.9
v 0.9 3.4 -1.5
v 0.9 3.4 -4.7
v 0.9 3.5 -1.5
v 0.9 3.5 -4.7
v 1 2 -1.2
v 1 2 -1.3
v 1 2.7 -1.2
v 1 2.7 -1.3
v 1.1 3.5 -1.7
v 1.1 3.5 -4.5
v 1.1 3.6 -1.7
v 1.1 3.6 -4.5
v 1.3 3.6 -1.9
v 1.3 3.6 -4.3
v 1.3 3.7 -1.9
v 1.3 3.7 -4.3
v 1.5 3.7 -2.1
v 1.5 3.7 -4.2
v 1.5 3.8 -2.1
v 1.5 3.8 -4.2
v 1.7 3.8 -2.2
v 1.7 3.8 -4
v 1.7 3.9 -2.2
v 1.7 3.9 -4
v 1.9 3.9 -2.4
v 1.9 3.9 -3.8
v 1.9 4 -2.4
v 1.9 4 -3.8
v 2.1 4 -2.6
v 2.1 4 -3.6
v 2.1 4.1 -2.6
v 2.1 4.1 -3.6
v 2.3 4.1 -2.8
v 2.3 4.1 -3.4
v 2.3 4.2 -2.8
v 2.3 4.2 -3.4
v 2.4 4.2 -2.9
v 2.4 4.2 -3.3
v 2.4 4.3 -2.9
v 2.4 4.3 -3.3
v 2.5 4.3 -3
v 2.5 4.3 -3.2
v 2.5 4.4 -3
v 2.5 4.4 -3.2
v 2.6 4 -3
v 2.6 4 -3.3
v 2.6 4.1 -3
v 2.6 4.1 -3.2
v 2.6 4.2 -3.2
v 2.6 4.2 -3.3
v 2.7 2.1 -1.2
v 2.7 2.1 -1.4
v 2.7 2.6 -1.2
v 2.7 2.6 -1.4
v 3.5 0.4 -1.2
v 3.5 0.4 -1.3
v 3.5 2.4 -1.2
v 3.5 2.4 -1.3
v 3.8 2.4 -1.2
v 3.8 2.4 -1.3
v 3.8 2.5 -1.2
v 3.8 2.5 -1.3
v 4.3 2.3 -1.2
v 4.3 2.3 -1.4
v 4.3 2.4 -1.2
v 4.3 2.4 -1.4
v 4.5 0.4 -1.2
v 4.5 0.4 -1.4
v 4.5 2.3 -1.2
v 4.5 2.3 -1.4
v 5.1 3 -1.5
v 5.1 3 -4.7
v 5.1 3.3 -1.5
v 5.1 3.3 -4.7
v 5.2 0.4 -1.4
v 5.2 0.4 -4.8
v 5.2 3 -1.4
v 5.2 3 -4.8
v 0.8 0.4 -1.4
v 0.8 0.4 -4.8
v 0.8 3 -1.4
v 0.8 3 -4.8
v 0.9 3 -1.5
v 0.9 3 -4.7
v 0.9 3.3 -1.5
v 0.9 3.3 -4.7
v 1.1 2.1 -1.2
v 1.1 2.1 -1.4
v 1.1 2.6 -1.2
v 1.1 2.6 -1.4
v 2.5 4 -3
v 2.5 4 -3.3
v 2.5 4.1 -3
v 2.5 4.1 -3.2
v 2.5 4.2 -3.2
v 2.5 4.2 -3.3
v 2.8 2 -1.2
v 2.8 2 -1.3
v 2.8 2.7 -1.2
v 2.8 2.7 -1.3
v 3.5 4.3 -3
v 3.5 4.3 -3.2
v 3.5 4.4 -3
v 3.5 4.4 -3.2
v 3.6 0.4 -1.2
v 3.6 0.4 -1.4
v 3.6 2.3 -1.2
v 3.6 2.3 -1.4
v 3.6 4.2 -2.9
v 3.6 4.2 -3.3
v 3.6 4.3 -2.9
v 3.6 4.3 -3.3
v 3.7 4.1 -2.8
v 3.7 4.1 -3.4
v 3.7 4.2 -2.8
v 3.7 4.2 -3.4
v 3.8 2.3 -1.2
v 3.8 2.3 -1.4
v 3.8 2.4 -1.2
v 3.8 2.4 -1.4
v 3.9 4 -2.6
v 3.9 4 -3.6
v 3.9 4.1 -2.6
v 3.9 4.1 -3.6
v 4.1 3.9 -2.4
v 4.1 3.9 -3.8
v 4.1 4 -2.4
v 4.1 4 -3.8
v 4.3 2.4 -1.2
v 4.3 2.4 -1.3
v 4.3 2.5 -1.2
v 4.3 2.5 -1.3
v 4.3 3.8 -2.2
v 4.3 3.8 -4
v 4.3 3.9 -2.2
v 4.3 3.9 -4
v 4.5 3.7 -2.1
v 4.5 3.7 -4.2
v 4.5 3.8 -2.1
v 4.5 3.8 -4.2
v 4.6 0.4 -1.2
v 4.6 0.4 -1.3
v 4.6 2.4 -1.2
v 4.6 2.4 -1.3
v 4.7 3.6 -1.9
v 4.7 3.6 -4.3
v 4.7 3.7 -1.9
v 4.7 3.7 -4.3
v 4.9 3.5 -1.7
v 4.9 3.5 -4.5
v 4.9 3.6 -1.7
v 4.9 3.6 -4.5
v 5.1 3.4 -1.5
v 5.1 3.4 -4.7
v 5.1 3.5 -1.5
v 5.1 3.5 -4.7
v 5.3 0.4 -1.3
v 5.3 0.4 -4.9
v 5.3 3 -1.3
v 5.3 3 -4.9
v 5.3 3.3 -1.3
v 5.3 3.3 -4.9
v 5.3 3.4 -1.3
v 5.3 3.4 -4.9
v 5.4 3 -1.2
v 5.4 3 -5
v 5.4 3.3 -1.2
v 5.4 3.3 -5
v 0.6 3 -1.2
v 0.6 3.3 -1.2
v 1 2 -1.2
v 1 2.7 -1.2
v 1.1 2.1 -1.2
v 1.1 2.6 -1.2
v 2.7 2.1 -1.2
v 2.7 2.6 -1.2
v 2.8 2 -1.2
v 2.8 2.7 -1.2
v 3.5 0.4 -1.2
v 3.5 2.4 -1.2
v 3.6 0.4 -1.2
v 3.6 2.3 -1.2
v 3.8 2.3 -1.2
v 3.8 2.4 -1.2
v 3.8 2.5 -1.2
v 4.3 2.3 -1.2
v 4.3 2.4 -1.2
v 4.3 2.5 -1.2
v 4.5 0.4 -1.2
v 4.5 2.3 -1.2
v 4.6 0.4 -1.2
v 4.6 2.4 -1.2
v 5.4 3 -1.2
v 5.4 3.3 -1.2
v 0.7 0.4 -1.3
v 0.7 3 -1.3
v 0.7 3.3 -1.3
v 0.7 3.4 -1.3
v 1 2 -1.3
v 1 2.7 -1.3
v 2.8 2 -1.3
v 2.8 2.7 -1.3
v 3.5 0.4 -1.3
v 3.5 2.4 -1.3
v 3.8 2.4 -1.3
v 3.8 2.5 -1.3
v 4.3 2.4 -1.3
v 4.3 2.5 -1.3
v 4.6 0.4 -1.3
v 4.6 2.4 -1.3
v 5.3 0.4 -1.3
v 5.3 3 -1.3
v 5.3 3.3 -1.3
v 5.3 3.4 -1.3
v 0.9 3.4 -1.5
v 0.9 3.5 -1.5
v 5.1 3.4 -1.5
v 5.1 3.5 -1.5
v 1.1 3.5 -1.7
v 1.1 3.6 -1.7
v 4.9 3.5 -1.7
v 4.9 3.6 -1.7
v 1.3 3.6 -1.9
v 1.3 3.7 -1.9
v 4.7 3.6 -1.9
v 4.7 3.7 -1.9
v 1.5 3.7 -2.1
v 1.5 3.8 -2.1
v 4.5 3.7 -2.1
v 4.5 3.8 -2.1
v 1.7 3.8 -2.2
v 1.7 3.9 -2.2
v 4.3 3.8 -2.2
v 4.3 3.9 -2.2
v 1.9 3.9 -2.4
v 1.9 4 -2.4
v 4.1 3.9 -2.4
v 4.1 4 -2.4
v 2.1 4 -2.6
v 2.1 4.1 -2.6
v 3.9 4 -2.6
v 3.9 4.1 -2.6
v 2.3 4.1 -2.8
v 2.3 4.2 -2.8
v 3.7 4.1 -2.8
v 3.7 4.2 -2.8
v 2.4 4.2 -2.9
v 2.4 4.3 -2.9
v 3.6 4.2 -2.9
v 3.6 4.3 -2.9
v 2.5 4.3 -3
v 2.5 4.4 -3
v 3.5 4.3 -3
v 3.5 4.4 -3
v 2.5 4 -3.3
v 2.5 4.2 -3.3
v 2.6 4 -3.3
v 2.6 4.2 -3.3
v 0.9 3 -4.7
v 0.9 3.3 -4.7
v 5.1 3 -4.7
v 5.1 3.3 -4.7
v 0.8 0.4 -4.8
v 0.8 3 -4.8
v 5.2 0.4 -4.8
v 5.2 3 -4.8
v 0.8 0.4 -1.4
v 0.8 3 -1.4
v 1.1 2.1 -1.4
v 1.1 2.6 -1.4
v 2.7 2.1 -1.4
v 2.7 2.6 -1.4
v 3.6 0.4 -1.4
v 3.6 2.3 -1.4
v 3.8 2.3 -1.4
v 3.8 2.4 -1.4
v 4.3 2.3 -1.4
v 4.3 2.4 -1.4
v 4.5 0.4 -1.4
v 4.5 2.3 -1.4
v 5.2 0.4 -1.4
v 5.2 3 -1.4
v 0.9 3 -1.5
v 0.9 3.3 -1.5
v 5.1 3 -1.5
v 5.1 3.3 -1.5
v 2.5 4 -3
v 2.5 4.1 -3
v 2.6 4 -3
v 2.6 4.1 -3
v 2.5 4.1 -3.2
v 2.5 4.2 -3.2
v 2.5 4.3 -3.2
v 2.5 4.4 -3.2
v 2.6 4.1 -3.2
v 2.6 4.2 -3.2
v 3.5 4.3 -3.2
v 3.5 4.4 -3.2
v 2.4 4.2 -3.3
v 2.4 4.3 -3.3
v 3.6 4.2 -3.3
v 3.6 4.3 -3.3
v 2.3 4.1 -3.4
v 2.3 4.2 -3.4
v 3.7 4.1 -3.4
v 3.7 4.2 -3.4
v 2.1 4 -3.6
v 2.1 4.1 -3.6
v 3.9 4 -3.6
v 3.9 4.1 -3.6
v 1.9 3.9 -3.8
v 1.9 4 -3.8
v 4.1 3.9 -3.8
v 4.1 4 -3.8
v 1.7 3.8 -4
v 1.7 3.9 -4
v 4.3 3.8 -4
v 4.3 3.9 -4
v 1.5 3.7 -4.2
v 1.5 3.8 -4.2
v 4.5 3.7 -4.2
v 4.5 3.8 -4.2
v 1.3 3.6 -4.3
v 1.3 3.7 -4.3
v 4.7 3.6 -4.3
v 4.7 3.7 -4.3
v 1.1 3.5 -4.5
v 1.1 3.6 -4.5
v 4.9 3.5 -4.5
v 4.9 3.6 -4.5
v 0.9 3.4 -4.7
v 0.9 3.5 -4.7
v 5.1 3.4 -4.7
v 5.1 3.5 -4.7
v 0.7 0.4 -4.9
v 0.7 3 -4.9
v 0.7 3.3 -4.9
v 0.7 3.4 -4.9
v 5.3 0.4 -4.9
v 5.3 3 -4.9
v 5.3 3.3 -4.9
v 5.3 3.4 -4.9
v 0.6 3 -5
v 0.6 3.3 -5
v 5.4 3 -5
v 5.4 3.3 -5
v 3.5 0.4 -1.2
v 3.6 0.4 -1.2
v 4.5 0.4 -1.2
v 4.6 0.4 -1.2
v 0.7 0.4 -1.3
v 3.5 0.4 -1.3
v 4.6 0.4 -1.3
v 5.3 0.4 -1.3
v 0.8 0.4 -1.4
v 3.6 0.4 -1.4
v 4.5 0.4 -1.4
v 5.2 0.4 -1.4
v 0.8 0.4 -4.8
v 5.2 0.4 -4.8
v 0.7 0.4 -4.9
v 5.3 0.4 -4.9
v 1 2 -1.2
v 2.8 2 -1.2
v 1 2 -1.3
v 2.8 2 -1.3
v 3.6 2.3 -1.2
v 3.8 2.3 -1.2
v 4.3 2.3 -1.2
v 4.5 2.3 -1.2
v 3.6 2.3 -1.4
v 3.8 2.3 -1.4
v 4.3 2.3 -1.4
v 4.5 2.3 -1.4
v 3.8 2.4 -1.2
v 4.3 2.4 -1.2
v 3.8 2.4 -1.4
v 4.3 2.4 -1.4
v 1.1 2.6 -1.2
v 2.7 2.6 -1.2
v 1.1 2.6 -1.4
v 2.7 2.6 -1.4
v 0.6 3 -1.2
v 5.4 3 -1.2
v 0.7 3 -1.3
v 5.3 3 -1.3
v 0.8 3 -1.4
v 5.2 3 -1.4
v 0.9 3 -1.5
v 5.1 3 -1.5
v 0.9 3 -4.7
v 5.1 3 -4.7
v 0.8 3 -4.8
v 5.2 3 -4.8
v 0.7 3 -4.9
v 5.3 3 -4.9
v 0.6 3 -5
v 5.4 3 -5
v 0.9 3.3 -1.5
v 5.1 3.3 -1.5
v 0.9 3.3 -4.7
v 5.1 3.3 -4.7
v 2.5 4.1 -3
v 2.6 4.1 -3
v 2.5 4.1 -3.2
v 2.6 4.1 -3.2
v 2.5 4.2 -3.2
v 2.6 4.2 -3.2
v 2.5 4.2 -3.3
v 2.6 4.2 -3.3
v 1.1 2.1 -1.2
v 2.7 2.1 -1.2
v 1.1 2.1 -1.4
v 2.7 2.1 -1.4
v 3.5 2.4 -1.2
v 3.8 2.4 -1.2
v 4.3 2.4 -1.2
v 4.6 2.4 -1.2
v 3.5 2.4 -1.3
v 3.8 2.4 -1.3
v 4.3 2.4 -1.3
v 4.6 2.4 -1.3
v 3.8 2.5 -1.2
v 4.3 2.5 -1.2
v 3.8 2.5 -1.3
v 4.3 2.5 -1.3
v 1 2.7 -1.2
v 2.8 2.7 -1.2
v 1 2.7 -1.3
v 2.8 2.7 -1.3
v 0.6 3.3 -1.2
v 5.4 3.3 -1.2
v 0.7 3.3 -1.3
v 5.3 3.3 -1.3
v 0.7 3.3 -4.9
v 5.3 3.3 -4.9
v 0.6 3.3 -5
v 5.4 3.3 -5
v 0.7 3.4 -1.3
v 5.3 3.4 -1.3
v 0.9 3.4 -1.5
v 5.1 3.4 -1.5
v 0.9 3.4 -4.7
v 5.1 3.4 -4.7
v 0.7 3.4 -4.9
v 5.3 3.4 -4.9
v 0.9 3.5 -1.5
v 5.1 3.5 -1.5
v 1.1 3.5 -1.7
v 4.9 3.5 -1.7
v 1.1 3.5 -4.5
v 4.9 3.5 -4.5
v 0.9 3.5 -4.7
v 5.1 3.5 -4.7
v 1.1 3.6 -1.7
v 4.9 3.6 -1.7
v 1.3 3.6 -1.9
v 4.7 3.6 -1.9
v 1.3 3.6 -4.3
v 4.7 3.6 -4.3
v 1.1 3.6 -4.5
v 4.9 3.6 -4.5
v 1.3 3.7 -1.9
v 4.7 3.7 -1.9
v 1.5 3.7 -2.1
v 4.5 3.7 -2.1
v 1.5 3.7 -4.2
v 4.5 3.7 -4.2
v 1.3 3.7 -4.3
v 4.7 3.7 -4.3
v 1.5 3.8 -2.1
v 4.5 3.8 -2.1
v 1.7 3.8 -2.2
v 4.3 3.8 -2.2
v 1.7 3.8 -4
v 4.3 3.8 -4
v 1.5 3.8 -4.2
v 4.5 3.8 -4.2
v 1.7 3.9 -2.2
v 4.3 3.9 -2.2
v 1.9 3.9 -2.4
v 4.1 3.9 -2.4
v 1.9 3.9 -3.8
v 4.1 3.9 -3.8
v 1.7 3.9 -4
v 4.3 3.9 -4
v 1.9 4 -2.4
v 4.1 4 -2.4
v 2.1 4 -2.6
v 3.9 4 -2.6
v 2.5 4 -3
v 2.6 4 -3
v 2.5 4 -3.3
v 2.6 4 -3.3
v 2.1 4 -3.6
v 3.9 4 -3.6
v 1.9 4 -3.8
v 4.1 4 -3.8
v 2.1 4.1 -2.6
v 3.9 4.1 -2.6
v 2.3 4.1 -2.8
v 3.7 4.1 -2.8
v 2.3 4.1 -3.4
v 3.7 4.1 -3.4
v 2.1 4.1 -3.6
v 3.9 4.1 -3.6
v 2.3 4.2 -2.8
v 3.7 4.2 -2.8
v 2.4 4.2 -2.9
v 3.6 4.2 -2.9
v 2.4 4.2 -3.3
v 3.6 4.2 -3.3
v 2.3 4.2 -3.4
v 3.7 4.2 -3.4
v 2.4 4.3 -2.9
v 3.6 4.3 -2.9
v 2.5 4.3 -3
v 3.5 4.3 -3
v 2.5 4.3 -3.2
v 3.5 4.3 -3.2
v 2.4 4.3 -3.3
v 3.6 4.3 -3.3
v 2.5 4.4 -3
v 3.5 4.4 -3
v 2.5 4.4 -3.2
v 3.5 4.4 -3.2

# faces
f 3/1/1 2/1/1 1/1/1
f 4/1/1 2/1/1 3/1/1
f 7/2/1 6/2/1 5/2/1
f 8/2/1 6/2/1 7/2/1
f 11/3/1 10/3/1 9/3/1
f 12/3/1 10/3/1 11/3/1
f 15/3/1 14/3/1 13/3/1
f 16/3/1 14/3/1 15/3/1
f 19/2/1 18/2/1 17/2/1
f 20/2/1 18/2/1 19/2/1
f 23/3/1 22/3/1 21/3/1
f 24/3/1 22/3/1 23/3/1
f 27/3/1 26/3/1 25/3/1
f 28/3/1 26/3/1 27/3/1
f 31/3/1 30/3/1 29/3/1
f 32/3/1 30/3/1 31/3/1
f 35/3/1 34/3/1 33/3/1
f 36/3/1 34/3/1 35/3/1
f 39/3/1 38/3/1 37/3/1
f 40/3/1 38/3/1 39/3/1
f 43/3/1 42/3/1 41/3/1
f 44/3/1 42/3/1 43/3/1
f 47/3/1 46/3/1 45/3/1
f 48/3/1 46/3/1 47/3/1
f 51/3/1 50/3/1 49/3/1
f 52/3/1 50/3/1 51/3/1
f 55/3/1 54/3/1 53/3/1
f 56/3/1 54/3/1 55/3/1
f 59/3/1 58/3/1 57/3/1
f 60/3/1 58/3/1 59/3/1
f 61/3/1 58/3/1 60/3/1
f 62/3/1 58/3/1 61/3/1
f 65/2/1 64/2/1 63/2/1
f 66/2/1 64/2/1 65/2/1
f 69/2/1 68/2/1 67/2/1
f 70/2/1 68/2/1 69/2/1
f 73/2/1 72/2/1 71/2/1
f 74/2/1 72/2/1 73/2/1
f 77/2/1 76/2/1 75/2/1
f 78/2/1 76/2/1 77/2/1
f 81/2/1 80/2/1 79/2/1
f 82/2/1 80/2/1 81/2/1
f 85/2/1 84/2/1 83/2/1
f 86/2/1 84/2/1 85/2/1
f 89/2/1 88/2/1 87/2/1
f 90/2/1 88/2/1 89/2/1
f 91/2/2 92/2/2 93/2/2
f 93/2/2 92/2/2 94/2/2
f 95/2/2 96/2/2 97/2/2
f 97/2/2 96/2/2 98/2/2
f 99/2/2 100/2/2 101/2/2
f 101/2/2 100/2/2 102/2/2
f 103/3/2 104/3/2 105/3/2
f 105/3/2 104/3/2 106/3/2
f 106/3/2 104/3/2 107/3/2
f 107/3/2 104/3/2 108/3/2
f 109/2/2 110/2/2 111/2/2
f 111/2/2 110/2/2 112/2/2
f 113/3/2 114/3/2 115/3/2
f 115/3/2 114/3/2 116/3/2
f 117/2/2 118/2/2 119/2/2
f 119/2/2 118/2/2 120/2/2
f 121/3/2 122/3/2 123/3/2
f 123/3/2 122/3/2 124/3/2
f 125/3/2 126/3/2 127/3/2
f 127/3/2 126/3/2 128/3/2
f 129/2/2 130/2/2 131/2/2
f 131/2/2 130/2/2 132/2/2
f 133/3/2 134/3/2 135/3/2
f 135/3/2 134/3/2 136/3/2
f 137/3/2 138/3/2 139/3/2
f 139/3/2 138/3/2 140/3/2
f 141/2/2 142/2/2 143/2/2
f 143/2/2 142/2/2 144/2/2
f 145/3/2 146/3/2 147/3/2
f 147/3/2 146/3/2 148/3/2
f 149/3/2 150/3/2 151/3/2
f 151/3/2 150/3/2 152/3/2
f 153/2/2 154/2/2 155/2/2
f 155/2/2 154/2/2 156/2/2
f 157/3/2 158/3/2 159/3/2
f 159/3/2 158/3/2 160/3/2
f 161/3/2 162/3/2 163/3/2
f 163/3/2 162/3/2 164/3/2
f 165/3/2 166/3/2 167/3/2
f 167/3/2 166/3/2 168/3/2
f 169/2/2 170/2/2 171/2/2
f 171/2/2 170/2/2 172/2/2
f 173/3/2 174/3/2 175/3/2
f 175/3/2 174/3/2 176/3/2
f 177/1/2 178/1/2 179/1/2
f 179/1/2 178/1/2 180/1/2
f 185/2/3 184/2/3 183/2/3
f 186/2/3 184/2/3 185/2/3
f 187/2/3 185/2/3 183/2/3
f 188/2/3 184/2/3 186/2/3
f 189/2/3 187/2/3 183/2/3
f 189/2/3 188/2/3 187/2/3
f 190/2/3 184/2/3 188/2/3
f 190/2/3 188/2/3 189/2/3
f 193/2/3 192/2/3 191/2/3
f 194/2/3 192/2/3 193/2/3
f 195/2/3 192/2/3 194/2/3
f 196/2/3 192/2/3 195/2/3
f 199/2/3 197/2/3 196/2/3
f 200/2/3 197/2/3 199/2/3
f 202/2/3 199/2/3 198/2/3
f 203/2/3 202/2/3 201/2/3
f 204/2/3 199/2/3 202/2/3
f 204/2/3 202/2/3 203/2/3
f 205/1/3 182/1/3 181/1/3
f 206/1/3 182/1/3 205/1/3
f 211/2/3 208/2/3 207/2/3
f 212/2/3 208/2/3 211/2/3
f 213/2/3 211/2/3 207/2/3
f 214/2/3 208/2/3 212/2/3
f 215/2/3 213/2/3 207/2/3
f 215/2/3 214/2/3 213/2/3
f 216/2/3 214/2/3 215/2/3
f 217/2/3 214/2/3 216/2/3
f 218/2/3 214/2/3 217/2/3
f 220/2/3 214/2/3 218/2/3
f 222/2/3 220/2/3 219/2/3
f 223/2/3 222/2/3 221/2/3
f 224/2/3 208/2/3 214/2/3
f 224/2/3 222/2/3 223/2/3
f 224/2/3 214/2/3 220/2/3
f 224/2/3 220/2/3 222/2/3
f 225/3/3 210/3/3 209/3/3
f 226/3/3 210/3/3 225/3/3
f 229/3/3 228/3/3 227/3/3
f 230/3/3 228/3/3 229/3/3
f 233/3/3 232/3/3 231/3/3
f 234/3/3 232/3/3 233/3/3
f 237/3/3 236/3/3 235/3/3
f 238/3/3 236/3/3 237/3/3
f 241/3/3 240/3/3 239/3/3
f 242/3/3 240/3/3 241/3/3
f 245/3/3 244/3/3 243/3/3
f 246/3/3 244/3/3 245/3/3
f 249/3/3 248/3/3 247/3/3
f 250/3/3 248/3/3 249/3/3
f 253/3/3 252/3/3 251/3/3
f 254/3/3 252/3/3 253/3/3
f 257/3/3 256/3/3 255/3/3
f 258/3/3 256/3/3 257/3/3
f 261/3/3 260/3/3 259/3/3
f 262/3/3 260/3/3 261/3/3
f 265/3/3 264/3/3 263/3/3
f 266/3/3 264/3/3 265/3/3
f 269/3/3 268/3/3 267/3/3
f 270/3/3 268/3/3 269/3/3
f 273/2/3 272/2/3 271/2/3
f 274/2/3 272/2/3 273/2/3
f 277/2/3 276/2/3 275/2/3
f 278/2/3 276/2/3 277/2/3
f 279/2/4 280/2/4 281/2/4
f 281/2/4 280/2/4 282/2/4
f 279/2/4 281/2/4 283/2/4
f 282/2/4 280/2/4 284/2/4
f 279/2/4 283/2/4 285/2/4
f 283/2/4 284/2/4 285/2/4
f 285/2/4 284/2/4 286/2/4
f 286/2/4 284/2/4 287/2/4
f 287/2/4 284/2/4 288/2/4
f 288/2/4 284/2/4 290/2/4
f 289/2/4 290/2/4 292/2/4
f 291/2/4 292/2/4 293/2/4
f 284/2/4 280/2/4 294/2/4
f 293/2/4 292/2/4 294/2/4
f 290/2/4 284/2/4 294/2/4
f 292/2/4 290/2/4 294/2/4
f 295/2/4 296/2/4 297/2/4
f 297/2/4 296/2/4 298/2/4
f 299/3/4 300/3/4 301/3/4
f 301/3/4 300/3/4 302/3/4
f 303/3/4 304/3/4 307/3/4
f 307/3/4 304/3/4 308/3/4
f 305/3/4 306/3/4 309/3/4
f 309/3/4 306/3/4 310/3/4
f 311/3/4 312/3/4 313/3/4
f 313/3/4 312/3/4 314/3/4
f 315/3/4 316/3/4 317/3/4
f 317/3/4 316/3/4 318/3/4
f 319/3/4 320/3/4 321/3/4
f 321/3/4 320/3/4 322/3/4
f 323/3/4 324/3/4 325/3/4
f 325/3/4 324/3/4 326/3/4
f 327/3/4 328/3/4 329/3/4
f 329/3/4 328/3/4 330/3/4
f 331/3/4 332/3/4 333/3/4
f 333/3/4 332/3/4 334/3/4
f 335/3/4 336/3/4 337/3/4
f 337/3/4 336/3/4 338/3/4
f 339/3/4 340/3/4 341/3/4
f 341/3/4 340/3/4 342/3/4
f 343/3/4 344/3/4 345/3/4
f 345/3/4 344/3/4 346/3/4
f 347/2/4 348/2/4 351/2/4
f 351/2/4 348/2/4 352/2/4
f 349/3/4 350/3/4 353/3/4
f 353/3/4 350/3/4 354/3/4
f 355/1/4 356/1/4 357/1/4
f 357/1/4 356/1/4 358/1/4
f 364/2/5 360/2/5 359/2/5
f 365/2/5 362/2/5 361/2/5
f 367/2/5 364/2/5 363/2/5
f 368/2/5 360/2/5 364/2/5
f 368/2/5 364/2/5 367/2/5
f 369/2/5 366/2/5 365/2/5
f 369/2/5 365/2/5 361/2/5
f 370/2/5 366/2/5 369/2/5
f 371/2/5 367/2/5 363/2/5
f 372/2/5 366/2/5 370/2/5
f 373/2/5 371/2/5 363/2/5
f 373/2/5 372/2/5 371/2/5
f 374/2/5 366/2/5 372/2/5
f 374/2/5 372/2/5 373/2/5
f 377/2/5 376/2/5 375/2/5
f 378/2/5 376/2/5 377/2/5
f 383/2/5 380/2/5 379/2/5
f 384/2/5 380/2/5 383/2/5
f 385/2/5 382/2/5 381/2/5
f 386/2/5 382/2/5 385/2/5
f 389/2/5 388/2/5 387/2/5
f 390/2/5 388/2/5 389/2/5
f 393/2/5 392/2/5 391/2/5
f 394/2/5 392/2/5 393/2/5
f 397/1/5 396/1/5 395/1/5
f 398/1/5 396/1/5 397/1/5
f 401/2/5 400/2/5 399/2/5
f 402/2/5 400/2/5 401/2/5
f 403/2/5 401/2/5 399/2/5
f 404/2/5 400/2/5 402/2/5
f 405/2/5 403/2/5 399/2/5
f 405/2/5 404/2/5 403/2/5
f 406/2/5 400/2/5 404/2/5
f 406/2/5 404/2/5 405/2/5
f 407/1/5 397/1/5 395/1/5
f 408/1/5 396/1/5 398/1/5
f 409/1/5 407/1/5 395/1/5
f 409/1/5 408/1/5 407/1/5
f 410/1/5 396/1/5 408/1/5
f 410/1/5 408/1/5 409/1/5
f 413/3/5 412/3/5 411/3/5
f 414/3/5 412/3/5 413/3/5
f 417/3/5 416/3/5 415/3/5
f 418/3/5 416/3/5 417/3/5
f 421/3/5 420/3/5 419/3/5
f 422/3/5 420/3/5 421/3/5
f 423/2/6 424/2/6 425/2/6
f 425/2/6 424/2/6 426/2/6
f 427/2/6 428/2/6 431/2/6
f 431/2/6 428/2/6 432/2/6
f 429/2/6 430/2/6 433/2/6
f 433/2/6 430/2/6 434/2/6
f 435/2/6 436/2/6 437/2/6
f 437/2/6 436/2/6 438/2/6
f 439/2/6 440/2/6 441/2/6
f 441/2/6 440/2/6 442/2/6
f 443/1/6 444/1/6 445/1/6
f 445/1/6 444/1/6 446/1/6
f 443/1/6 445/1/6 447/1/6
f 446/1/6 444/1/6 448/1/6
f 443/1/6 447/1/6 449/1/6
f 447/1/6 448/1/6 449/1/6
f 448/1/6 444/1/6 450/1/6
f 449/1/6 448/1/6 450/1/6
f 451/3/6 452/3/6 453/3/6
f 453/3/6 452/3/6 454/3/6
f 451/3/6 453/3/6 455/3/6
f 454/3/6 452/3/6 456/3/6
f 451/3/6 455/3/6 457/3/6
f 455/3/6 456/3/6 457/3/6
f 456/3/6 452/3/6 458/3/6
f 457/3/6 456/3/6 458/3/6
f 459/3/6 460/3/6 461/3/6
f 461/3/6 460/3/6 462/3/6
f 459/3/6 461/3/6 463/3/6
f 462/3/6 460/3/6 464/3/6
f 459/3/6 463/3/6 465/3/6
f 463/3/6 464/3/6 465/3/6
f 464/3/6 460/3/6 466/3/6
f 465/3/6 464/3/6 466/3/6
f 467/3/6 468/3/6 469/3/6
f 469/3/6 468/3/6 470/3/6
f 467/3/6 469/3/6 471/3/6
f 470/3/6 468/3/6 472/3/6
f 467/3/6 471/3/6 473/3/6
f 471/3/6 472/3/6 473/3/6
f 472/3/6 468/3/6 474/3/6
f 473/3/6 472/3/6 474/3/6
f 475/3/6 476/3/6 477/3/6
f 477/3/6 476/3/6 478/3/6
f 475/3/6 477/3/6 479/3/6
f 478/3/6 476/3/6 480/3/6
f 475/3/6 479/3/6 481/3/6
f 479/3/6 480/3/6 481/3/6
f 480/3/6 476/3/6 482/3/6
f 481/3/6 480/3/6 482/3/6
f 483/3/6 484/3/6 485/3/6
f 485/3/6 484/3/6 486/3/6
f 483/3/6 485/3/6 487/3/6
f 486/3/6 484/3/6 488/3/6
f 483/3/6 487/3/6 489/3/6
f 487/3/6 488/3/6 489/3/6
f 488/3/6 484/3/6 490/3/6
f 489/3/6 488/3/6 490/3/6
f 491/3/6 492/3/6 493/3/6
f 493/3/6 492/3/6 494/3/6
f 491/3/6 493/3/6 495/3/6
f 494/3/6 492/3/6 496/3/6
f 491/3/6 495/3/6 497/3/6
f 495/3/6 496/3/6 497/3/6
f 496/3/6 492/3/6 498/3/6
f 497/3/6 496/3/6 498/3/6
f 499/3/6 500/3/6 501/3/6
f 501/3/6 500/3/6 502/3/6
f 503/3/6 504/3/6 505/3/6
f 505/3/6 504/3/6 506/3/6
f 499/3/6 501/3/6 507/3/6
f 502/3/6 500/3/6 508/3/6
f 499/3/6 507/3/6 509/3/6
f 507/3/6 508/3/6 509/3/6
f 508/3/6 500/3/6 510/3/6
f 509/3/6 508/3/6 510/3/6
f 511/3/6 512/3/6 513/3/6
f 513/3/6 512/3/6 514/3/6
f 511/3/6 513/3/6 515/3/6
f 514/3/6 512/3/6 516/3/6
f 511/3/6 515/3/6 517/3/6
f 515/3/6 516/3/6 517/3/6
f 516/3/6 512/3/6 518/3/6
f 517/3/6 516/3/6 518/3/6
f 519/3/6 520/3/6 521/3/6
f 521/3/6 520/3/6 522/3/6
f 519/3/6 521/3/6 523/3/6
f 522/3/6 520/3/6 524/3/6
f 519/3/6 523/3/6 525/3/6
f 523/3/6 524/3/6 525/3/6
f 524/3/6 520/3/6 526/3/6
f 525/3/6 524/3/6 526/3/6
f 527/3/6 528/3/6 529/3/6
f 529/3/6 528/3/6 530/3/6
f 527/3/6 529/3/6 531/3/6
f 530/3/6 528/3/6 532/3/6
f 527/3/6 531/3/6 533/3/6
f 531/3/6 532/3/6 533/3/6
f 532/3/6 528/3/6 534/3/6
f 533/3/6 532/3/6 534/3/6
f 535/3/6 536/3/6 537/3/6
f 537/3/6 536/3/6 538/3/6
